<svg xmlns="http://www.w3.org/2000/svg" viewBox="0 0 130.82761 130.83368" height="139.556" width="139.549"><path d="M.61 129.41C.274 128.537 0 99.598 0 65.103 0 17.656.292 2.093 1.2 1.185 2.108.277 17.727-.011 65.45 0c34.677.008 63.616.375 64.307.814.993.63 1.204 14.348 1 65.235l-.257 64.436-64.64.257c-58.296.232-64.7.102-65.25-1.332zM125 96.963V68.942l-19.162.271-19.161.272-1.097 3.261c-2.873 8.54-10.949 14.178-20.362 14.217-12.875.054-21.594-8.594-21.657-21.478-.057-11.88 8.016-20.56 19.822-21.312 10.527-.67 19.061 4.733 22.197 14.05l1.097 3.262 19.177.272 19.178.271-.266-27.771-.266-27.772H6.5l-.26 58c-.142 31.9-.044 58.563.22 59.25.374.98 13.205 1.25 59.509 1.25H125V96.963zm-51.237-18.65c4.671-3.488 6.46-6.785 6.54-12.054.133-8.856-5.45-15.234-13.979-15.969-16.75-1.443-23.177 21.143-8.253 29 4.304 2.266 11.988 1.788 15.692-.977z" fill="gray"/></svg>