<?xml version="1.0" encoding="UTF-8" standalone="no"?>
<svg
   xmlns:dc="http://purl.org/dc/elements/1.1/"
   xmlns:cc="http://creativecommons.org/ns#"
   xmlns:rdf="http://www.w3.org/1999/02/22-rdf-syntax-ns#"
   xmlns:svg="http://www.w3.org/2000/svg"
   xmlns="http://www.w3.org/2000/svg"
   viewBox="0 0 315 175"
   height="175"
   width="315"
   xml:space="preserve"
   version="1.1"
   id="svg2"><metadata
     id="metadata8"><rdf:RDF><cc:Work
         rdf:about=""><dc:format>image/svg+xml</dc:format><dc:type
           rdf:resource="http://purl.org/dc/dcmitype/StillImage" /><dc:title></dc:title></cc:Work></rdf:RDF></metadata><defs
     id="defs6" /><g
     transform="matrix(1.25,0,0,-1.25,0,175)"
     id="g10"><g
       transform="scale(0.1,0.1)"
       id="g12"><path
         id="path14"
         style="fill:#231f20;fill-opacity:1;fill-rule:evenodd;stroke:none"
         d="m 1057.68,1183.04 77.07,208.07 47.21,0 77.33,-208.74 -55.21,0 -16.22,43.52 -59,0 -16.22,-43.52 -112.31,0 -47.689,87.61 -24.489,0 0,-87.61 -54.839,0 0,208.74 67.23,0 c 6.879,0.05 13.754,-0.01 20.625,-0.15 7.598,-0.1 15.184,-0.66 22.742,-1.52 7.68,-0.92 15.27,-2.49 22.63,-4.85 7.25,-2.26 14.05,-5.55 20.22,-9.96 5.99,-4.25 10.76,-9.59 14.22,-16.06 3.6,-6.7 5.09,-14.06 5.16,-21.64 l 0,-15.38 c 0,-4.75 -0.88,-9.27 -2.64,-13.66 -1.67,-4.26 -3.95,-8.21 -6.84,-11.78 -2.89,-3.5 -6.22,-6.54 -9.98,-9.12 -4.06,-2.67 -8.47,-4.82 -13,-6.57 -3.37,-1.28 -6.8,-2.42 -10.27,-3.35 l 54.27,-94.03 z m -510.563,79.69 0,-80.36 -54.84,0 0,208.74 76.063,0 c 7.562,0.1 15.117,-0.17 22.66,-0.64 8.117,-0.49 16.172,-1.76 24.078,-3.65 8.305,-1.97 16.16,-5.18 23.59,-9.47 6.582,-4.05 13.027,-9.13 17.422,-15.56 3.555,-5.15 6.281,-10.84 7.488,-17.02 1.059,-5.36 1.621,-10.82 1.531,-16.27 l 0,-5.74 c 0.098,-4.48 -0.441,-9 -1.281,-13.39 -1.051,-5.48 -3.34,-10.66 -6.273,-15.38 -3.688,-5.93 -9.121,-10.84 -14.84,-14.83 -7.008,-4.63 -14.598,-8.16 -22.645,-10.56 -7.808,-2.35 -15.851,-3.94 -23.965,-4.75 -7.585,-0.74 -15.21,-1.17 -22.824,-1.12 l -26.164,0 z m 219.887,-36.84 -59.004,0 -16.219,-43.52 -55.211,0 77.332,208.74 47.203,0 77.329,-208.74 -55.207,0 -16.223,43.52 z m 658.436,44.39 0,120.83 54.84,0 0,-208.74 -53.55,0 -77.72,120.83 0,-120.83 -54.84,0 0,208.74 53.55,0 77.72,-120.83 z m 106.2,-31.68 0,96.26 c -0.09,5.3 0.34,10.59 1.46,15.76 1.24,5.81 3.93,11.02 7.59,15.67 4.65,5.91 11.47,10.63 17.97,14.3 8.36,4.66 17.58,7.77 26.9,9.87 11.42,2.55 23.26,3.5 34.96,3.55 11.67,-0.05 23.55,-0.99 34.95,-3.55 9.32,-2.1 18.53,-5.21 26.9,-9.87 6.55,-3.66 13.29,-8.36 17.97,-14.3 3.66,-4.65 6.34,-9.86 7.6,-15.67 1.11,-5.17 1.53,-10.47 1.45,-15.73 l 0,-96.27 c 0.08,-5.29 -0.34,-10.59 -1.45,-15.76 -1.26,-5.81 -3.94,-11.01 -7.6,-15.66 -4.68,-5.96 -11.42,-10.65 -17.97,-14.31 -8.37,-4.66 -17.58,-7.76 -26.9,-9.87 -11.4,-2.57 -23.28,-3.5 -34.96,-3.55 -11.69,0.05 -23.53,0.99 -34.96,3.55 -9.31,2.11 -18.53,5.21 -26.9,9.87 -6.49,3.66 -13.32,8.39 -17.96,14.31 -3.66,4.65 -6.35,9.85 -7.59,15.65 -1.12,5.18 -1.55,10.49 -1.46,15.75 z m 229.11,152.51 54.84,0 0,-208.74 -54.84,0 0,208.74 z m 108.16,0 69.2,0 c 7.7,0.05 15.41,-0.18 23.1,-0.59 8.63,-0.45 17.21,-1.59 25.66,-3.34 8.48,-1.75 16.68,-4.56 24.38,-8.6 5.7,-3.14 11.22,-7.07 15.54,-11.98 3.43,-3.93 6.41,-8.35 8.44,-13.2 1.53,-3.86 2.89,-8.02 3.37,-12.12 0.42,-2.95 0.79,-6.1 0.69,-9.02 l 0,-89.58 c 0.08,-4.97 -0.37,-9.91 -1.46,-14.74 -1.13,-5.46 -3.5,-10.48 -6.66,-15.04 -3.93,-5.7 -9.56,-10.35 -15.33,-14.13 -7.5,-4.73 -15.57,-8.29 -24.11,-10.68 -8.09,-2.25 -16.38,-3.88 -24.74,-4.64 -7.31,-0.7 -14.66,-1.13 -21.99,-1.08 l -76.09,0 0,208.74 z m -1321.793,-31.78 0,-64.82 23.738,0 c 3.372,-0.06 6.774,0.17 10.122,0.47 3.711,0.33 7.386,1.05 10.964,2.03 3.653,1.03 7.094,2.56 10.278,4.58 2.187,1.45 4.808,3.49 6.14,5.81 1.032,1.78 1.696,3.69 1.844,5.74 0.156,2.29 0.152,4.6 0.07,6.93 l 0,13.45 c 0.09,2.4 -0.027,4.84 -0.382,7.27 -0.301,2.57 -1.352,4.93 -2.809,7.06 -1.953,2.85 -5.469,5.03 -8.477,6.54 -3.589,1.71 -7.367,2.91 -11.292,3.58 -4.153,0.72 -8.348,1.13 -12.54,1.26 -4.418,0.1 -8.839,0.15 -13.277,0.1 l -14.379,0 z m 211.981,-101.96 -22.532,65.48 -21.695,-65.48 44.227,0 z m 169.054,101.96 0,-57.57 25.207,0 c 5.118,-0.05 10.239,0.41 15.266,1.35 4.852,0.93 9.484,2.58 13.793,4.95 2.086,1.2 4.727,2.87 6.258,4.8 1.105,1.34 1.863,2.84 2.199,4.55 0.414,2.07 0.508,4.29 0.434,6.44 l 0,14.49 c -0.063,3.37 -0.957,6.49 -2.832,9.34 -1.797,2.85 -4.184,5.11 -7.067,6.81 -2.965,1.71 -6.129,2.93 -9.465,3.64 -3.449,0.69 -6.965,1.06 -10.488,1.15 -3.508,0.1 -7.031,0.1 -10.559,0.05 l -22.746,0 z m 251.798,-101.96 -22.53,65.47 -21.69,-65.47 44.22,0 z m 474.6,-23.17 0.01,105.13 c 0.07,1.82 -0.15,3.63 -0.51,5.36 -0.45,1.81 -1.27,3.38 -2.43,4.87 -1.54,2.01 -3.85,3.67 -6.02,4.96 -2.94,1.78 -6.56,2.95 -9.87,3.78 -4.89,1.23 -10.21,1.57 -15.21,1.61 -5,-0.04 -10.27,-0.38 -15.13,-1.61 -3.32,-0.83 -7.01,-2 -9.96,-3.78 -2.12,-1.28 -4.5,-2.96 -6,-4.93 -1.09,-1.48 -2.01,-3.11 -2.44,-4.84 -0.36,-1.79 -0.59,-3.61 -0.52,-5.48 l 0,-105.11 c -0.07,-1.82 0.16,-3.65 0.5,-5.37 0.44,-1.77 1.35,-3.39 2.46,-4.85 1.49,-2.01 3.89,-3.7 6,-4.98 2.95,-1.78 6.63,-2.94 9.94,-3.78 4.91,-1.18 10.12,-1.57 15.13,-1.61 5.06,0.04 10.32,0.43 15.23,1.61 3.32,0.84 6.92,1.99 9.88,3.79 2.16,1.28 4.48,2.95 6.03,5.03 1.15,1.43 1.97,3.01 2.4,4.74 0.37,1.77 0.59,3.56 0.51,5.46 z m 269.2,122.81 0,-140.54 19.32,0 c 3.57,-0.05 7.17,0.16 10.71,0.42 3.67,0.33 7.33,0.99 10.9,1.95 3.44,0.9 6.76,2.32 9.74,4.12 2.6,1.77 5.05,3.97 6.64,6.69 1.33,2.33 2.38,4.86 2.78,7.56 0.41,2.31 0.69,4.77 0.61,7.15 l 0,90.01 c 0.07,2.86 -0.56,5.72 -1.55,8.39 -1.22,3.32 -3.9,6.03 -6.61,8.11 -2.69,1.88 -5.6,3.39 -8.8,4.26 -3.26,0.95 -6.63,1.47 -10.02,1.64 -3.81,0.2 -7.64,0.28 -11.47,0.24 l -22.25,0" /><path
         id="path16"
         style="fill:#231f20;fill-opacity:1;fill-rule:nonzero;stroke:none"
         d="m 495.113,1185.21 49.168,0 0,80.35 29.008,0 c 7.129,-0.04 14.664,0.34 22.539,1.12 7.856,0.77 15.727,2.32 23.426,4.64 7.785,2.32 15.082,5.7 21.883,10.2 6.308,4.39 10.98,9.09 14.008,13.97 3.039,4.88 5,9.72 5.902,14.41 0.902,4.74 1.312,8.99 1.226,12.81 l 0,5.8 c 0.086,5.08 -0.41,10.3 -1.472,15.72 -1.067,5.41 -3.442,10.73 -7.047,15.95 -3.598,5.27 -9.094,10.15 -16.555,14.75 -7.293,4.2 -14.832,7.25 -22.777,9.14 -7.867,1.88 -15.738,3.09 -23.598,3.57 -7.871,0.49 -15.32,0.73 -22.453,0.63 l -73.258,0 0,-203.06 z m 49.168,176.95 17.207,0 c 4.426,0.05 8.856,0 13.352,-0.09 4.433,-0.15 8.765,-0.58 12.953,-1.31 4.262,-0.72 8.281,-2.03 12.047,-3.82 4.508,-2.27 7.699,-4.74 9.582,-7.49 1.887,-2.76 2.957,-5.51 3.277,-8.32 0.41,-2.75 0.496,-5.32 0.41,-7.68 l 0,-13.35 c 0.086,-2.42 0.086,-4.79 -0.078,-7.15 -0.168,-2.38 -0.898,-4.7 -2.218,-6.97 -1.301,-2.27 -3.68,-4.54 -7.04,-6.77 -3.441,-2.17 -7.136,-3.82 -11.066,-4.93 -3.855,-1.06 -7.711,-1.79 -11.473,-2.13 -3.773,-0.33 -7.211,-0.53 -10.414,-0.48 l -26.539,0 0,70.49 z m 290.078,-176.95 -75.226,203.06 -43.258,0 -75.23,-203.06 49.171,0 16.219,43.51 62.934,0 16.226,-43.51 49.164,0 z m -71.285,69.33 -52.129,0 25.571,77.17 26.558,-77.17 z m 113.074,133.73 0,-203.06 49.168,0 0,87.6 29.008,0 47.686,-87.6 51.14,0 -54.08,93.7 c 4.5,1.01 9,2.41 13.6,4.16 4.5,1.73 8.68,3.81 12.45,6.29 3.44,2.36 6.55,5.16 9.34,8.55 2.7,3.33 4.83,7.01 6.4,11.02 1.64,4.07 2.45,8.22 2.45,12.62 l 0,15.38 c -0.07,7.59 -1.64,14.36 -4.83,20.3 -3.2,6 -7.62,11.02 -13.36,15.09 -5.82,4.15 -12.3,7.34 -19.43,9.57 -7.116,2.27 -14.491,3.82 -22.116,4.74 -7.621,0.87 -15.074,1.4 -22.449,1.5 -7.375,0.14 -14.258,0.19 -20.57,0.14 l -64.407,0 z m 49.168,-26.11 25.571,0 c 3.437,0.05 7.047,0.05 10.648,-0.05 3.688,-0.09 7.371,-0.48 10.981,-1.2 3.605,-0.78 7.047,-2.08 10.32,-3.97 3.277,-1.93 5.984,-4.49 8.031,-7.73 2.133,-3.25 3.203,-6.87 3.278,-10.83 l 0,-14.51 c 0.085,-2.56 -0.075,-4.93 -0.489,-7.01 -0.41,-2.08 -1.312,-4.01 -2.789,-5.8 -1.465,-1.84 -3.844,-3.63 -7.047,-5.46 -4.668,-2.57 -9.582,-4.31 -14.668,-5.27 -5.164,-0.97 -10.41,-1.45 -15.812,-1.41 l -28.024,0 0,63.24 z m 329.894,-176.95 -75.22,203.06 -43.26,0 -75.23,-203.06 49.17,0 16.22,43.51 62.94,0 16.22,-43.51 49.16,0 z m -71.28,69.33 -52.13,0 25.57,77.17 26.56,-77.17 z m 113.08,133.73 0,-203.06 49.16,0 0,127.64 82.1,-127.64 49.18,0 0,203.06 -49.18,0 0,-127.64 -82.1,127.64 -49.16,0 z m 237.46,-149.68 c -0.08,-5.13 0.33,-10.21 1.4,-15.14 1.06,-4.98 3.36,-9.81 7.05,-14.5 3.68,-4.7 9.42,-9.24 17.12,-13.59 7.37,-4.11 16.06,-7.3 26.14,-9.57 10.16,-2.28 21.55,-3.44 34.34,-3.49 12.78,0.05 24.24,1.21 34.33,3.49 10.08,2.27 18.76,5.46 26.13,9.57 7.79,4.35 13.45,8.89 17.13,13.59 3.69,4.69 5.98,9.52 7.05,14.5 1.07,4.93 1.47,10.01 1.39,15.14 l 0,96.31 c 0.08,5.12 -0.32,10.19 -1.39,15.13 -1.07,4.98 -3.36,9.82 -7.05,14.51 -3.68,4.68 -9.34,9.23 -17.13,13.57 -7.37,4.12 -16.05,7.31 -26.13,9.58 -10.09,2.27 -21.55,3.44 -34.33,3.49 -12.79,-0.05 -24.18,-1.22 -34.34,-3.49 -10.08,-2.27 -18.77,-5.46 -26.14,-9.58 -7.7,-4.34 -13.44,-8.89 -17.12,-13.57 -3.69,-4.69 -5.99,-9.53 -7.05,-14.51 -1.07,-4.94 -1.48,-10.01 -1.4,-15.13 l 0,-96.31 z m 122.92,-4.36 c 0.09,-2.03 -0.16,-4.06 -0.58,-6.09 -0.49,-1.98 -1.39,-3.96 -2.95,-5.9 -1.47,-1.98 -3.69,-3.86 -6.8,-5.7 -2.7,-1.65 -6.22,-3 -10.65,-4.11 -4.43,-1.07 -9.75,-1.65 -15.89,-1.69 -6.15,0.04 -11.4,0.62 -15.82,1.69 -4.43,1.11 -8.03,2.46 -10.74,4.11 -3.03,1.84 -5.32,3.72 -6.8,5.7 -1.47,1.94 -2.45,3.92 -2.95,5.9 -0.4,2.03 -0.65,4.06 -0.57,6.09 l 0,105.01 c -0.08,2.04 0.17,4.06 0.57,6.1 0.5,1.98 1.48,3.96 2.95,5.95 1.48,1.93 3.77,3.82 6.8,5.65 2.71,1.65 6.31,3 10.74,4.11 4.42,1.11 9.67,1.65 15.82,1.7 6.14,-0.05 11.46,-0.59 15.89,-1.7 4.43,-1.11 7.95,-2.46 10.65,-4.11 3.11,-1.83 5.33,-3.72 6.8,-5.65 1.56,-1.99 2.46,-3.97 2.95,-5.95 0.42,-2.04 0.67,-4.06 0.58,-6.1 l 0,-105.01 z m 106.19,154.04 0,-203.06 49.17,0 0,203.06 -49.17,0 z m 108.17,0 0,-203.06 73.25,0 c 6.47,-0.05 13.69,0.29 21.72,1.06 7.94,0.73 16.06,2.27 24.25,4.55 8.28,2.31 16.06,5.75 23.35,10.34 6.48,4.26 11.31,8.7 14.51,13.35 3.19,4.59 5.25,9.28 6.23,14.02 1.07,4.74 1.47,9.47 1.39,14.12 l 0,89.63 c 0.08,2.23 -0.16,5.13 -0.66,8.61 -0.4,3.49 -1.55,7.3 -3.19,11.46 -1.72,4.11 -4.35,8.27 -7.95,12.38 -3.6,4.11 -8.52,7.93 -14.75,11.36 -7.29,3.82 -15.16,6.57 -23.6,8.31 -8.44,1.74 -16.88,2.86 -25.23,3.29 -8.28,0.44 -15.98,0.63 -22.95,0.58 l -66.37,0 z m 49.16,-28.42 25.08,0 c 4.09,0.04 7.95,-0.06 11.63,-0.25 3.77,-0.19 7.3,-0.77 10.65,-1.74 3.36,-0.92 6.56,-2.51 9.67,-4.69 3.86,-2.95 6.39,-6.09 7.62,-9.43 1.24,-3.33 1.8,-6.47 1.73,-9.42 l 0,-89.93 c 0.07,-2.27 -0.16,-4.84 -0.66,-7.64 -0.41,-2.85 -1.48,-5.66 -3.11,-8.52 -1.64,-2.8 -4.19,-5.36 -7.54,-7.63 -3.28,-1.99 -6.88,-3.53 -10.58,-4.5 -3.77,-1.01 -7.61,-1.69 -11.38,-2.03 -3.85,-0.29 -7.54,-0.48 -10.98,-0.43 l -22.13,0 0,146.21" /><path
         id="path18"
         style="fill:#231f20;fill-opacity:1;fill-rule:nonzero;stroke:none"
         d="M 2099.02,924.203 C 1943.33,812.313 1646.11,649.934 1207.2,484.016 716.043,669.98 451.422,834.973 329.672,924.203 l -326.12122,0 C 14.918,914.848 254.086,905.137 267.387,895.098 429.918,772.387 738.227,599.992 1193.95,428.855 c 4.82,-1.828 10.02,-2.714 15.21,-2.714 6.47,0 12.9,1.386 18.53,4.14 2.08,0.992 3.99,2.157 5.69,3.426 445.03,167.887 749.38,334.02 911.57,449.941 20.03,14.317 351.98,27.86 367.68,40.555 l -413.61,0" /><path
         id="path20"
         style="fill:#231f20;fill-opacity:1;fill-rule:nonzero;stroke:none"
         d="M 2099.02,595.305 C 1943.33,707.195 1646.11,869.574 1207.2,1035.49 716.043,849.523 451.422,684.531 329.672,595.305 l -326.12122,0 C 14.918,604.656 254.086,614.367 267.387,624.41 c 162.531,122.715 470.84,295.106 926.563,466.24 4.82,1.83 10.02,2.71 15.21,2.71 6.47,0 12.9,-1.38 18.53,-4.13 2.08,-1 3.99,-2.16 5.69,-3.43 445.03,-167.89 749.38,-334.019 911.57,-449.945 20.03,-14.312 351.98,-27.855 367.68,-40.55 l -413.61,0" /><path
         id="path22"
         style="fill:#54a7aa;fill-opacity:1;fill-rule:nonzero;stroke:none"
         d="m 366.063,108.922 c 0,-31.1017 -5.981,-53.6251 -17.918,-67.5782 -11.934,-13.9532 -31.114,-20.9375 -57.524,-20.9375 -30.855,0 -105.871,0 -225.0624,0 l 0,62.4296 c 123.6214,0 187.6564,0 192.0894,0 4.442,0 8.504,0.25 12.207,0.7461 3.696,0.4805 7.129,1.5274 10.305,3.1172 3.164,1.5938 5.699,3.9844 7.606,7.168 1.898,3.1758 2.855,7.3398 2.855,12.4878 0,5.875 -1.324,10.59 -3.969,14.133 -2.644,3.547 -6.074,6.129 -10.297,7.715 -4.234,1.598 -8.617,2.578 -13.156,2.942 -4.547,0.367 -10.097,0.562 -16.648,0.562 -4.008,0.234 -15.321,0.719 -33.914,1.461 -29.157,1.227 -47.446,2.02 -54.832,2.387 -7.403,0.359 -14.375,0.738 -20.926,1.097 -6.551,0.375 -12.152,0.797 -16.797,1.286 -23.4609,1.472 -40.2617,10.41 -50.4023,26.82 -7.1875,12.234 -10.7734,30.484 -10.7734,54.722 0,29.879 4.957,52.286 14.8945,67.219 9.9297,14.942 26.4142,22.406 49.4492,22.406 30.645,0 108.512,0 233.617,0 l 0,-62.437 c -123.625,0 -187.652,0 -192.09,0 -4.234,0 -8.039,-0.25 -11.406,-0.734 -3.391,-0.496 -6.562,-1.543 -9.519,-3.125 -2.954,-1.602 -5.336,-3.985 -7.129,-7.164 -1.793,-3.176 -2.7,-7.348 -2.7,-12.493 0,-9.304 2.856,-15.422 8.567,-18.359 5.707,-2.941 13.629,-4.41 23.769,-4.41 l 6.653,0 c 2.965,0 5.074,0 6.336,0 3.808,-0.246 14.91,-0.727 33.289,-1.477 25.359,-0.976 42.957,-1.707 52.781,-2.195 9.824,-0.496 18.117,-0.914 24.883,-1.297 6.758,-0.359 12.359,-0.785 16.797,-1.277 23.242,-1.461 39.515,-11.266 48.816,-29.379 6.762,-14.938 10.149,-33.551 10.149,-55.836" /><path
         id="path24"
         style="fill:#54a7aa;fill-opacity:1;fill-rule:nonzero;stroke:none"
         d="m 701.129,87.6289 0,-67.2226 -273.234,0 0,288.6987 3.168,0 78.933,0 191.133,0 0,-66.851 -195.574,0 0,-48.484 183.535,0 0,-58.403 -183.535,0 0,-47.7381 195.574,0" /><path
         id="path26"
         style="fill:#54a7aa;fill-opacity:1;fill-rule:nonzero;stroke:none"
         d="m 725.227,187.527 c 0,26.938 0,40.77 0,41.512 0,26.441 6.605,46.402 19.816,59.859 13.203,13.473 33.543,20.207 61.008,20.207 42.898,0 114.34,0 214.289,0 l 0,-70.89 c -125.527,0 -194.11,0 -205.727,0 -7.398,0 -12.89,-1.469 -16.476,-4.406 -3.594,-2.946 -5.395,-6.618 -5.395,-11.02 l -0.953,-23.883 0,-68.308 0.953,-22.778 c 0,-5.386 1.75,-9.6794 5.231,-12.8552 3.48,-3.1875 9.027,-4.7734 16.64,-4.7734 11.617,0 80.2,0 205.727,0 l 0,-69.7851 c -99.949,0 -171.391,0 -214.289,0 -27.465,0 -47.805,6.7382 -61.008,20.207 -13.211,13.457 -19.816,33.289 -19.816,59.4887 0,0.98 0,14.941 0,41.882 l 0,45.543" /><path
         id="path28"
         style="fill:#54a7aa;fill-opacity:1;fill-rule:nonzero;stroke:none"
         d="m 1123.99,309.105 0,-192.468 c 0,-5.637 2.05,-10.223 6.17,-13.778 4.13,-3.5504 10.52,-5.3277 19.19,-5.3277 l 110.3,0 c 9.3,0 16.02,1.7773 20.14,5.3277 4.11,3.555 6.18,8.141 6.18,13.778 l 0,192.468 76.38,0 0,-204.957 c 0,-12.9839 -1.21,-24.0035 -3.65,-33.0582 -2.42,-9.0585 -7.02,-17.5156 -13.78,-25.3359 -7.18,-7.5976 -13.15,-13.0469 -17.91,-16.3476 -4.75,-3.3047 -11.31,-5.8243 -19.65,-7.5391 -8.34,-1.6992 -19.86,-2.8008 -34.55,-3.3008 -14.69,-0.4844 -37.24,-0.7344 -67.67,-0.7344 -30.22,0 -52.73,0.25 -67.53,0.7344 -14.79,0.5 -26.36,1.6016 -34.7,3.3008 -8.35,1.7148 -15.01,4.2851 -19.98,7.7148 -4.96,3.4297 -10.93,8.8203 -17.9,16.1719 -6.77,7.8203 -11.35,16.2774 -13.79,25.3359 -2.43,9.0547 -3.65,20.0743 -3.65,33.0582 l 0,204.957 76.4,0" /><path
         id="path30"
         style="fill:#54a7aa;fill-opacity:1;fill-rule:nonzero;stroke:none"
         d="m 1610.23,185.324 c 5.92,5.141 8.88,12.606 8.88,22.406 0,8.571 -2.86,15.614 -8.56,21.122 -5.7,5.507 -12.37,8.257 -19.97,8.257 l -123.3,0 0,-216.7027 -77.67,0 0,288.6987 206.68,0 c 17.54,0 32.11,-1.464 43.75,-4.414 11.61,-2.929 21.11,-7.773 28.52,-14.5 7.39,-6.742 12.83,-15.855 16.33,-27.363 3.48,-11.519 5.22,-26.082 5.22,-43.711 0,-17.637 -1.37,-32.453 -4.12,-44.441 -2.76,-12.008 -7.1,-21.676 -12.99,-29.024 -5.92,-7.339 -13.79,-12.738 -23.62,-16.16 -9.83,-3.433 -22.13,-5.137 -36.93,-5.137 l 0,-1.476 101.75,-102.4727 -86.22,0 -149.93,157.2027 111.59,0 c 7.8,0 14.67,2.575 20.59,7.715" /><path
         id="path32"
         style="fill:#54a7aa;fill-opacity:1;fill-rule:nonzero;stroke:none"
         d="m 1829.02,309.105 0,-288.6987 -77.66,0 0,288.6987 77.66,0" /><path
         id="path34"
         style="fill:#54a7aa;fill-opacity:1;fill-rule:nonzero;stroke:none"
         d="m 2054.13,20.4063 -77.66,0 0,221.8477 -109.36,0 0,66.851 292.89,0 0,-66.851 -105.87,0 0,-221.8477" /><path
         id="path36"
         style="fill:#54a7aa;fill-opacity:1;fill-rule:nonzero;stroke:none"
         d="m 2370.49,120.672 0,-100.2657 -77.99,0 0,100.2657 -135.03,188.433 93.19,0 81.14,-117.175 81.15,117.175 93.2,0 -135.66,-188.433" /><path
         id="path38"
         style="fill:#54a7aa;fill-opacity:1;fill-rule:evenodd;stroke:none"
         d="m 328.367,329.02 c 27.602,0 49.988,-22.391 49.988,-49.989 0,-27.59 -22.386,-49.98 -49.988,-49.98 -27.594,0 -49.984,22.39 -49.984,49.98 0,27.598 22.39,49.989 49.984,49.989" /><path
         id="path40"
         style="fill:#54a7aa;fill-opacity:1;fill-rule:evenodd;stroke:none"
         d="m 67.668,101.5 c 27.5976,0 49.984,-22.3867 49.984,-49.9844 0,-27.5976 -22.3864,-49.98826 -49.984,-49.98826 -27.5977,0 -49.9883,22.39066 -49.9883,49.98826 0,27.5977 22.3906,49.9844 49.9883,49.9844" /><path
         id="path42"
         style="fill:#1f3a3f;fill-opacity:1;fill-rule:evenodd;stroke:none"
         d="m 1384.79,884.258 -6.54,9.453 c -13.77,17.328 -15.2,19.141 -27.27,30.711 -5.46,4.691 -12.75,10.957 -18.46,15.328 -9.35,6.898 -21.33,11.75 -35.89,14.125 -74.38,12.086 -188.18,-45.148 -254.18,-127.844 -39.23,-49.156 -52.747,-96.238 -41.64,-128.883 l 1.04,-2.968 c 9.15,-22.735 13.13,-31.758 29,-54.657 l 6.98,-9.05 c -26.55,32.574 -16.36,90.754 32.56,152.047 68.15,85.386 185.65,144.488 262.45,132 24.44,-3.973 41.81,-14.711 51.95,-30.262" /><path
         id="path44"
         style="fill:#315f63;fill-opacity:1;fill-rule:evenodd;stroke:none"
         d="m 1263.08,973.727 c -7.12,1.722 -16.66,3.961 -23.88,5.285 -18.4,2.34 -21.23,2.699 -37.47,2.785 -54.64,-0.703 -128.03,-40.867 -172.42,-96.473 -13.99,-17.535 -23.59,-34.707 -28.9,-50.535 l -1.504,-4.695 c -4.519,-16.586 -5.457,-20.039 -7.906,-36.762 -0.52,-5.828 -1.293,-13.605 -1.551,-19.449 0.985,25.746 14.161,57.023 39.931,89.305 58.16,72.878 158.43,123.308 223.98,112.66 3.4,-0.559 6.65,-1.266 9.72,-2.121" /><path
         id="path46"
         style="fill:#121f25;fill-opacity:1;fill-rule:evenodd;stroke:none"
         d="m 1418.89,747.152 c 1.06,19.153 1.22,22.094 0.06,38.52 -0.74,5.871 -1.63,13.715 -2.64,19.551 -4.72,26.476 -23.9,45.23 -57.01,50.613 -71.46,11.613 -180.79,-43.379 -244.19,-122.816 -54.45,-68.223 -57.33,-132.29 -11.82,-156.395 7.55,-3.66 17.72,-8.344 25.49,-11.5 8.68,-2.891 20.37,-6.383 29.23,-8.645 -59.09,12.852 -63.19,77.047 -8.15,145.997 56.5,70.789 153.9,119.785 217.57,109.433 37.16,-6.047 54.61,-30.976 51.46,-64.758" /><path
         id="path48"
         style="fill:#121f25;fill-opacity:1;fill-rule:evenodd;stroke:none"
         d="m 1281.95,587.652 c -17.35,2.825 -18.95,20.754 -3.54,40.047 15.4,19.301 41.96,32.656 59.3,29.824 17.37,-2.82 18.95,-20.746 3.55,-40.039 -15.32,-19.199 -41.68,-32.519 -59.04,-29.875 -21.25,-17.445 -44.43,-28.421 -67.78,-32.871 12.82,-1.949 27.44,-0.707 42.78,3.188 l 5.99,1.594 c 13.24,4.109 13.49,4.187 20.45,6.929 11.82,4.981 11.82,4.981 17.65,7.903 10.55,5.586 10.55,5.586 15.78,8.785 9.42,6.043 10.19,6.535 14.57,9.758 9.23,7.054 9.23,7.054 13.84,11.035 9.12,8.25 9.12,8.25 13.58,12.847 8.81,9.539 9.15,9.914 13.64,15.516 8.69,11.469 9.03,11.91 13.46,18.84 l 1.44,2.305 c 28.28,45.656 20.21,85.078 -21.88,91.917 -47.31,7.7 -119.71,-28.714 -161.69,-81.32 -41.99,-52.613 -37.67,-101.492 9.65,-109.183 23.48,4.429 46.82,15.378 68.25,32.8" /><path
         id="path50"
         style="fill:#315f63;fill-opacity:1;fill-rule:evenodd;stroke:none"
         d="m 1087.27,605.109 c 76.81,-11.679 193.44,47.254 261.24,132.196 46.46,58.222 57.98,113.629 36.28,146.953 l -6.54,9.453 c -10.19,13.512 -12.13,15.465 -27.27,30.711 -4.18,3.988 -9.92,8.539 -14.92,12.508 34.38,-29.504 27.11,-90.317 -24.27,-154.688 -65.65,-82.269 -178.61,-139.332 -253,-128.027 0.07,-0.172 -1.1,0.012 -1.18,0.191 -30.16,4.903 -49.22,20.453 -56.8,42.742 l 1.04,-2.96 c 10.39,-26.958 15.84,-35.071 29,-54.665 l 6.98,-9.05 c 10.44,-12.801 26.55,-21.649 48.22,-25.172 -0.3,0.379 0.89,0.199 1.22,-0.192" /><path
         id="path52"
         style="fill:#3e97af;fill-opacity:1;fill-rule:evenodd;stroke:none"
         d="m 1333.05,939.336 -0.09,0.094 -0.44,0.32 0.53,-0.414 z" /><path
         id="path54"
         style="fill:#3e97af;fill-opacity:1;fill-rule:evenodd;stroke:none"
         d="m 1332.96,939.43 0.09,-0.094 c 0.95,-0.773 1.97,-1.578 3.01,-2.406 -1.01,0.863 -2.04,1.691 -3.1,2.5" /><path
         id="path56"
         style="fill:#3779a1;fill-opacity:1;fill-rule:evenodd;stroke:none"
         d="m 1336.06,936.93 c -1.14,0.98 -2.32,1.918 -3.54,2.82 1.11,-0.887 2.3,-1.836 3.54,-2.82" /><path
         id="path58"
         style="fill:#54a7aa;fill-opacity:1;fill-rule:evenodd;stroke:none"
         d="m 1068.23,915.766 c 15.17,19.019 41.35,32.183 58.45,29.402 17.11,-2.785 18.67,-20.453 3.49,-39.473 -15.1,-18.922 -41.08,-32.043 -58.19,-29.445 -0.31,-0.594 -0.58,-0.543 -0.27,0.043 -17.1,2.781 -18.67,20.453 -3.48,39.473 z m -18.62,-96.926 c 0.15,0.582 0.74,0.449 0.6,-0.09 37.94,-5.766 95.54,23.332 129.02,65.285 33.65,42.168 30.19,81.348 -7.73,87.516 -37.94,6.168 -95.96,-23.02 -129.62,-65.196 -33.66,-42.16 -30.19,-81.347 7.73,-87.515" /><path
         id="path60"
         style="fill:#438387;fill-opacity:1;fill-rule:evenodd;stroke:none"
         d="m 1042.75,711.949 c -0.07,0.504 0.95,0.364 1.03,-0.164 65.56,-9.965 165.1,40.328 222.95,112.813 55.14,69.09 52.63,133.55 -3.65,149.129 -7.1,1.843 -16.68,3.839 -23.88,5.285 -13.36,2.289 -24,2.515 -37.47,2.785 5.92,0.078 11.63,-0.305 17.06,-1.18 55.44,-9.019 60.49,-66.293 11.3,-127.941 -48.94,-61.317 -133.14,-103.86 -188.59,-95.426 -0.02,-0.434 -0.89,-0.289 -0.88,0.137 -39.67,6.457 -53.542,37.609 -40.21,77.402 l -1.504,-4.695 c -4.582,-15.985 -5.09,-19.16 -7.906,-36.762 -0.672,-5.812 -1.141,-13.609 -1.551,-19.449 -1.238,-32.371 16.801,-56 53.301,-61.934" /><path
         id="path62"
         style="fill:#1f3a3f;fill-opacity:1;fill-rule:evenodd;stroke:none"
         d="m 1418.95,785.672 c -0.44,5.898 -1.8,13.695 -2.64,19.551 5.46,-30.649 -8.43,-71.649 -42.43,-114.27 -63.09,-79.035 -171.6,-133.867 -243.08,-122.992 0.49,-0.277 -0.65,-0.086 -1.12,0.164 -10.1,1.645 -18.9,4.535 -26.39,8.5 7.51,-3.738 17.75,-8.258 25.49,-11.5 8.67,-2.91 20.38,-6.348 29.23,-8.645 1.57,-0.339 3.19,-0.648 4.83,-0.91 -3.48,0.778 -2.36,0.586 1,-0.16 63.68,-9.683 160.37,39.172 216.57,109.586 23.52,29.465 36.24,58.063 38.48,82.156 1.2,16.235 1.07,18.774 0.06,38.52" /><path
         id="path64"
         style="fill:#3b8eab;fill-opacity:1;fill-rule:evenodd;stroke:none"
         d="m 1344.98,605.047 c -4.42,-4.301 -8.99,-8.445 -13.71,-12.418 l 0.39,0.266 c 4.17,3.003 5.27,3.914 13.84,11.035 l 0.39,0.34 c 4.22,4.113 8.29,8.371 12.21,12.769 -4.21,-4.152 -8.6,-8.152 -13.12,-11.992" /><path
         id="path66"
         style="fill:#3c8caa;fill-opacity:1;fill-rule:evenodd;stroke:none"
         d="m 1372,632.047 c -2.65,-3.508 -5.4,-6.938 -8.23,-10.305 1.81,2.031 3.97,4.61 8.95,10.551 4.36,5.496 5.12,6.477 10.39,14.305 -2.38,-3.457 -4.93,-6.926 -7.72,-10.422 -1.11,-1.383 -2.24,-2.766 -3.39,-4.129" /><path
         id="path68"
         style="fill:#3c8caa;fill-opacity:1;fill-rule:evenodd;stroke:none"
         d="m 1386.18,651.133 1.44,2.305 c -0.68,-1.102 -1.4,-2.204 -2.12,-3.309 0.23,0.336 0.43,0.648 0.68,1.004" /><path
         id="path70"
         style="fill:#3779a1;fill-opacity:1;fill-rule:evenodd;stroke:none"
         d="m 1386.18,651.133 1.44,2.305 c -0.68,-1.102 -1.4,-2.204 -2.12,-3.309 0.23,0.336 0.43,0.648 0.68,1.004" /><path
         id="path72"
         style="fill:#3c8caa;fill-opacity:1;fill-rule:evenodd;stroke:none"
         d="m 1385.5,650.129 c -0.89,-1.316 -1.68,-2.492 -2.39,-3.531 0.82,1.179 1.62,2.359 2.39,3.531" /><path
         id="path74"
         style="fill:#3779a1;fill-opacity:1;fill-rule:evenodd;stroke:none"
         d="m 1385.5,650.129 c -0.89,-1.316 -1.68,-2.492 -2.39,-3.531 0.82,1.179 1.62,2.359 2.39,3.531" /></g></g></svg>