<svg xmlns="http://www.w3.org/2000/svg" viewBox="0 0 435.75275 166.841" height="166.841" width="435.753"><path d="M56.365 13.322h-8.403c-12.708 0-25.007 8.404-25.007 32.794 0 23.571 11.274 31.155 25.007 31.155h8.403V13.322zM43.248 90.39l-25.006 56.158H0l27.465-60.054C14.553 79.935 5.944 68.047 5.944 46.116 5.944 15.372 25.415 0 48.577 0h23.57v146.548H56.365V90.39H43.248" fill="#ee252c"/><path d="M378.773 94.899c0-32.385 12.504-53.087 36.69-53.087 9.222 0 14.551 2.46 19.061 5.33l-2.255 15.167c-4.304-3.69-10.453-7.174-17.011-7.174-11.479 0-19.676 12.912-19.676 38.944 0 25.825 6.147 40.582 19.06 40.582 7.788 0 13.733-3.074 17.422-6.354l3.689 11.888c-5.534 4.715-12.093 7.789-21.521 7.789-22.137 0-35.46-17.832-35.46-53.085zm-46.731.205v51.444h-15.988V43.246h15.988v47.758l24.8-47.758h16.193l-25.621 48.578 29.31 54.724h-17.422l-27.26-51.444zM256.82 85.47h26.44c0-17.628-2.87-30.54-12.092-30.54-9.839 0-13.323 12.092-14.348 30.54zm17.627 62.514c-21.315 0-34.434-17.012-34.434-48.782 0-33.203 9.224-57.39 31.155-57.39 17.217 0 28.49 12.913 28.49 47.963v8.812h-43.043c0 23.367 6.559 35.665 19.266 35.665 9.02 0 16.193-4.1 20.292-6.97l3.69 12.298c-6.559 5.125-15.168 8.404-25.416 8.404zM206.399 56.16h-17.832v1.844c0 21.726-1.026 53.496-9.633 75.427h27.465V56.16zm23.98 110.681h-14.348v-20.293H171.76v20.293h-14.348v-33.41h6.355c9.428-21.931 10.453-53.906 10.453-81.371v-8.814h47.962v90.185h8.198v33.41zm-82.19-123.595v103.302h-15.783v-46.32H108.63v46.32H92.644V43.246h15.986V87.11h23.776V43.246h15.783" fill="#040606"/></svg>