<?xml version="1.0" encoding="UTF-8" standalone="no"?>
<svg
   xmlns:dc="http://purl.org/dc/elements/1.1/"
   xmlns:cc="http://creativecommons.org/ns#"
   xmlns:rdf="http://www.w3.org/1999/02/22-rdf-syntax-ns#"
   xmlns:svg="http://www.w3.org/2000/svg"
   xmlns="http://www.w3.org/2000/svg"
   viewBox="0 0 671.57501 385.95001"
   height="385.95001"
   width="671.57501"
   xml:space="preserve"
   version="1.1"
   id="svg2"><metadata
     id="metadata8"><rdf:RDF><cc:Work
         rdf:about=""><dc:format>image/svg+xml</dc:format><dc:type
           rdf:resource="http://purl.org/dc/dcmitype/StillImage" /><dc:title></dc:title></cc:Work></rdf:RDF></metadata><defs
     id="defs6" /><g
     transform="matrix(1.25,0,0,-1.25,0,385.95)"
     id="g10"><g
       transform="scale(0.1,0.1)"
       id="g12"><path
         id="path14"
         style="fill:#ee252c;fill-opacity:1;fill-rule:nonzero;stroke:none"
         d="m 1408.52,2023.41 -67.23,0 c -101.66,0 -200.05,-67.23 -200.05,-262.35 0,-188.57 90.19,-249.24 200.05,-249.24 l 67.23,0 0,511.59 z m -104.94,-616.54 -200.05,-449.268 -145.932,0 219.722,480.438 c -103.3,52.47 -172.17,147.57 -172.17,323.02 0,245.95 155.77,368.93 341.06,368.93 l 188.56,0 0,-1172.388 -126.25,0 0,449.268 -104.94,0" /><path
         id="path16"
         style="fill:#040606;fill-opacity:1;fill-rule:nonzero;stroke:none"
         d="m 3987.78,1370.8 c 0,259.08 100.03,424.69 293.52,424.69 73.78,0 116.41,-19.68 152.49,-42.63 l -18.04,-121.34 c -34.43,29.52 -83.62,57.39 -136.09,57.39 -91.83,0 -157.41,-103.3 -157.41,-311.55 0,-206.6 49.18,-324.66 152.49,-324.66 62.3,0 109.86,24.59 139.37,50.83 l 29.51,-95.1 c -44.27,-37.719 -96.74,-62.309 -172.17,-62.309 -177.09,0 -283.67,142.649 -283.67,424.679 z m -373.85,-1.64 0,-411.558 -127.9,0 0,826.418 127.9,0 0,-382.06 198.4,382.06 129.55,0 -204.97,-388.62 234.48,-437.798 -139.38,0 -218.08,411.558 z m -601.77,77.07 211.52,0 c 0,141.02 -22.96,244.32 -96.74,244.32 -78.71,0 -106.58,-96.74 -114.78,-244.32 z m 141.01,-500.109 c -170.52,0 -275.47,136.089 -275.47,390.249 0,265.63 73.79,459.12 249.24,459.12 137.74,0 227.92,-103.3 227.92,-383.7 l 0,-70.5 -344.34,0 c 0,-186.93 52.47,-285.32 154.13,-285.32 72.15,0 129.54,32.8 162.33,55.76 l 29.52,-98.38 c -52.47,-40.998 -121.34,-67.229 -203.33,-67.229 z m -544.38,734.589 -142.66,0 0,-14.75 c 0,-173.81 -8.2,-427.97 -77.06,-603.42 l 219.72,0 0,618.17 z m 191.84,-885.448 -114.78,0 0,162.34 -354.18,0 0,-162.34 -114.78,0 0,267.278 50.84,0 c 75.42,175.45 83.62,431.25 83.62,650.97 l 0,70.51 383.7,0 0,-721.48 65.58,0 0,-267.278 z m -657.52,988.758 0,-826.418 -126.26,0 0,370.568 -190.21,0 0,-370.568 -127.89,0 0,826.418 127.89,0 0,-350.9 190.21,0 0,350.9 126.26,0" /></g></g></svg>