<svg xmlns="http://www.w3.org/2000/svg" viewBox="0 0 317.28394 212.22874" height="226.377" width="338.436"><path d="M72.11 143.198h1.697v1.696H72.11v-1.696zm189.183-51.75h1.696V89.75l-1.696.849h-1.697v-3.394l-2.14-4.407-.405 6.104-2.485-1.007-.06-2.386h-.848l-2.545 3.393c-3.255-3.432 1.645-.133-2.545-1.697v-2.545h-.85l-.465 1.824.625 2.358-3.553.06 1.335-2.774.363-1.468h-1.698l-4.356 4.119-3.245-.83-.034 1.801-1.696-1.696v-4.242h-.849c0 3.89.06 4.712-3.394 5.09l-.62-4.285.62-3.35-2.327-5.177.631-1.61-6.786-15.271-9.333-10.18 12.725 23.755.965 3.378c.135 1.93-.923 2.56-2.66 2.56-2.292 0-2.34-.405-4.242-.848h-.849l-.706.989-1.794-1.061-.894 1.768-.945 6.782-3.296.005-1.707 3.387-4.232-3.387v-2.545h-1.697v1.697c-.275 3.315.515 2.576-2.544 3.393v-2.545l.808-5.098-.808-3.385V75.33l-7.445 3.049 2.708-2.458-3.747-.591v3.393h-3.393l-2.545 2.545-2.759 2.253-3.153-.067-.027-3.035.976 1.655 2.418-5.048h-.848l-2.485 1.007-1.395-2.933-1.211 1.926c-1.56-.363-2.559-.99-3.394-.848l-6.786.848-2.545.849-5.939 1.696h-2.545l-.847-1.696H154.4v-1.697l-11.027-.848-1.698.848.969 2.522 4.969.022v8.484h-2.544v1.696l-4.243-.847-.848.847c-1.563 1.872-4.242 1.15-4.242-1.696V74.481h-8.483l.848-1.696 5.94-.849.952-3.361 1.592-.033v1.697h1.696v-1.697h1.697l.848 1.697h6.787v-1.697l-6.762.994-.145-1.212 16.24-1.479h1.697l3.7-1.769 20.902-3.32V60.06l-2.485 1.005-.061-1.855-5.113.524c-1.32-.319-1.196-.524-3.37-.524h-.848c-1.64 0-1.512-.266-2.545-.848l-.884 1.082-18.629.616v1.696h-8.484l-4.23.96 2.534-2.656c-1.059-.438-17.16 3.392-23.754 3.392-1.437 0-3.17-1.13-4.242-1.696l.849-1.696-1.655-.976.806-1.57-5.938-.849 4.23.96.011 1.585H103.5l-7.635 7.635-1.007 2.485-4.075.94-.857-1.728-.848 1.697c-1.593-.133-3.498-.006-3.215-1.685l-.3-4.355 1.353-2.354-.383-2.635-3.36.952 1.663-2.648-9.332-2.545-7.635 3.393.921 1.652c-2.055 3.006-3.898 4.85-6.86 6.831l5.091-9.331 9.332-13.574-10.18-11.029C61.577 35.99 47.197 56.995 46.656 63.47L36.48 61.756h-1.696l-1.653.92-.893-.92-.805 1.569 1.654.976.968 2.521 1.793-3.273 3.177-.096v5.09l-1.994-2.358-1.4 2.358v2.545l.977 5.06c-5.89-3.83-2.912.666-6.066-5.91l-.849-.847c-1.824 1.524-.532 2.805 0 5.09-2.775-1.005-.616 1.1-2.545-2.545V70.24l-4.185-4.26 2.488 8.502 2.485 1.007.06 1.538-2.545-.848h-5.09v1.697h-1.696V75.33l-.849 2.545c-8.174.68-2.551 4.046-9.183 7.595l.57 3.371-1.567 4.304-.674 2.258 4.068 2.832-2.546 5.09v5.09h1.697v-1.696c.977-.715 5.939-6.946 5.939-.849l-.617 2.145-2.88 4.675 1.123 3.466-3.565 6.682v1.696l2.617.045-.92 1.651-.848.849c3.431 3.255.133-1.645 1.696 2.545l-3.393-.848-3.394 3.393H2.545c-1.955 0-2.545.59-2.545 2.545v.849c0 2.653 1.522 2.403 3.393 3.393h2.545v2.545l7.636 2.545.122 2.023 4.975-2.034 5.331 3.653 1.408 3.137-.785 4.978 2.522.968h1.697v-1.696l1.872.071-1.872 5.02 1.824.042-.976 1.653 1.697.85.848-1.698 2.546-3.393.006 1.706 3.284-1.72.102 4.255 1.773-3.453-6.014-8.424-1.528-.17-1.866-1.526-.989-.707-.707-.99-6.787-5.09-2.545-.848-2.372-.044-1.022-4.199h5.939c1.347-.712 3.83-2.545 5.09-2.545h3.393c2.89 0 2.303 1.079 1.697 2.545h2.545v1.698l-1.58.015-.965 3.378-1.697 3.393v1.697c4.99-.546.26.373 4.242-2.545l3.165-1.211 3.114-1.11-3.734 4.866v1.697l5.09-1.697.036 1.913 5.903-1.065c1.881 1.785 8.157 12.656 10.343 15.956 2.668 4.024 8.823 11.233 12.562 13.736l5.939-5.09-13.574-17.815c-2.041-1.496-2.263-1.697-2.545-5.091h1.697c.303 3.649-.12 1.53 1.697 4.243l13.573 16.118 3.394-2.545-4.242-4.241-4.242-5.09-1.913-.945 1.913-3.297 5.09 3.393.848-2.545H77.2v-1.697l1.82-.101-1.834-2.547 4.256.103 3.393 2.545c-.475-.683-1.697-2.094-1.697-2.545 0-3.581 1.587-1.338 4.342-2.38 2.411-.911 2.927-2.895 5.163-4.363l-1.021 4.198h5.938c3.244 0 .31-.26 2.694.887l.7-3.432 1.576.023.795 2.48 1.022-4.2h2.545l.044-1.87 4.198 1.022v-1.697h4.242v1.697h2.545v5.09h1.697v-3.393h1.696l-.039 2.396 3.292-.15 7.775 1.147.894 1.77 1.651-.922v1.697h1.698l8.484 2.545.66-2.248-2.235-2.291 7.756 2.537-4.383-4.162 4.139 1.922.024-1.816 2.521.968h.849l1.532-.48 3.558 1.328-.043-1.57-1.596-1.178 7.705 1.942-.976 1.654v.849c3.872.902 3.042.176 3.369 3.44l-3.37-1.743-.502 3.941-2.042 4.543h3.394c3.59 0 .447-1.173 4.242-2.545l.06-2.388 2.485-1.006 3.066-4.517 3.72-3.967.023-1.577 2.522-.968-2.717-.892 1.02-4.198.849-2.545H191.727c1.515-2.863 2.545-3.803 2.545 0l8.334 1.088-4.091 9.941 2.545.848 3.392-5.09h3.394c3.411-3.091.189 1.5 1.728-2.771l7.603 1.074v1.697l3.394.848 3.394 2.545 5.939.85 4.24-.85v2.545l2.546-1.696 1.697-1.697.882-4.138 3.36-.952v-.848l.033-1.801 3.36.952-.043-1.47 4.285.622 3.215.108 4.42 6.68 4.242 11.028.848-1.698h2.546v-2.545l-.849-3.393c-3.059-.817-2.27-.078-2.545-3.393l-2.672-3.436.976-1.654-.668-2.972 4.91 2.123v-.848l-.807-4.114 1.655-.976c-3.438-.802-2.555-.228-3.394-2.545h-2.545v-.848h3.393l1.697-.849-1.697-2.545 1.8-.033-.952-3.36h-1.696l4.581-4.756 1.358-.334v1.696l.847 3.394 1.8-.016-.445-7.304 4.645-6.413 2.484 1.008h1.696l-.8-2.564.8-.83c-1.095-1.155-2.296-2.239-3.392-3.394l-1.855.79 1.006-2.486-3.36.953-3.379-1.138 2.497-2.36v1.696h2.546v-1.696h-2.546v-.849l.848-2.545h-1.696v1.697h-1.696l-.061-2.387-2.667-1.188-2.363 2.727-2.522.968-1.075-5.17 1.9-.04zM46.66 127.928h0zm-33.086 16.118l2.545-1.697v1.697h-2.545zm150.159-7.636l2.545-1.696v1.696l3.505.011-.96 4.231-.85 4.242-1.033 2.192-8.297-3.04-2.563-3.497 6.083-1.127-1.824-.466.032-3.497 3.362.951zm11.876 2.546v.848h.849v-1.696h1.696v2.545l-1.704 5.968-4.234-.878v-2.545h-1.697V141.5l1.769-.045-.92-1.652h1.696l.849-.848-.888-2.693 3.433-.7v1.696l-1.77.045.92 1.652zm-164.58-5.938v-1.697h3.393v1.697h-3.393zm191.909 1.877l-6.968-.181c-1.357-4.755 15.844-9.983 6.968.181zM123.86 79.571h1.696v8.484h-1.696v-8.484zm-51.75 6.787V84.66h1.697v1.697H72.11zm-46.66-3.394c2.607 1.91 1.37-.546 1.697 3.394H25.45v-3.394zm172.703-1.076l.362 2.773-1.994-.187 1.632-2.586zm-120.104-.62h.847V75.33h.85l-.225 13.568-1.472.005v-1.697h-1.697l-.849-7.635V75.33h2.546v5.938zm44.962-3.393c0 .754-.942 1.696-1.697 1.696-1.736 0-1.56-1.748-1.696-3.393 1.646.136 3.393-.04 3.393 1.697zm2.545-.849l5.978-.512.762 2.226.047 1.679 1.063 8.456-1.91.028c-1.41-2.222-.85-7.35-.85-11.028l-5.097.808.007-1.657zm0 0h-1.696v-2.545h1.696v2.545zm-86.532-8.483l2.022 4.998-2.022.092.802-2.563-.802-2.527zm66.172-5.09v-1.697h1.697v1.697h-1.697" fill="#292627" fill-rule="evenodd"/><path d="M66.172 32.911l10.18 11.029c12.165-13.996 35.896-29.691 61.93-29.691l11.937-.403 22.845 3.795h.849l-.85-3.392L154.4 8.31l6.911-.178-3.527-2.285-10.171-.93h-11.028c-8.769 0-17.493 4.85-23.754 3.393l.92 1.651c-5.749 1.368-15.907 5.078-20.421 7.691C89.95 19.61 79.394 28.084 77.2 28.67l-.503-.703 17.798-12.75.52.728c.37-4.435 6.224-6.787 11.03-6.787l3.392-2.545 10.181-3.394-4.242-.848c-15.472 3.604-43.12 19.043-49.204 30.54" fill="#353132" fill-rule="evenodd"/><path d="M71.261 177.131c9.781 14.606 45.046 28.845 71.263 28.845 31.272 0 52.849-11.77 69.565-26.3H205.3l-3.393 1.698c-5.418 7.393-22.845 10.117-30.54 15.27-5.562 0-12.163 1.927-18.35 2.925-2.472.398-15.62-.38-20.675-.38v-.849c19.88 0 51.473-3.025 58.536-13.573-3.485.812-15.499 6.587-20.348 8.495-4.092 1.612-18.758 4.23-24.615 4.23h-4.24c-14.136 0-26.513-3.85-36.98-7.985-8.39-3.316-25.944-17.05-27.496-17.466l-5.939 5.09" fill="#322f30" fill-rule="evenodd"/><path d="M81.442 166.951l-3.393 2.545c6.876 10.269 38.333 25.45 56.839 25.45h15.27c16.605 0 31.118-7.41 41.593-13.55 5.813-3.406 10.524-7.155 15.037-12.11 2.04-2.242 12.4-14.702 12.936-15.06l-.791-.372 5.032-8.112-3.394-2.545c-2.53 10.864-19.47 26.052-27.848 32.384-9.058 6.849-28.573 15.124-44.262 15.124h-10.18c-14.29 0-22.741-3.781-32.97-7.75-10.907-4.23-15.654-10.503-23.869-16.004" fill="#373334" fill-rule="evenodd"/><path d="M78.049 169.496l-13.574-16.119-.849.85L77.2 172.04c1.552.415 19.106 14.15 27.497 17.466 10.466 4.135 22.843 7.985 36.978 7.985h4.241c5.857 0 20.523-2.618 24.615-4.23 4.85-1.908 16.863-7.683 20.348-8.495.282-.385 13.404-10.756 15.489-12.507 4.816-4.046 11.702-12.966 14.203-14.64-3.07 11.502-26.152 23.758-28.613 29.21l9.95-5.456 3.393-1.698 3.394-3.393 12.725-12.725 9.505-11.748-.174-3.522 2.523-.968.024-.729h-3.394l-5.939-.849-5.032 8.112.79.372c-.534.358-10.894 12.818-12.935 15.06-4.513 4.955-9.224 8.704-15.037 12.11-10.475 6.14-24.988 13.55-41.592 13.55h-15.271c-18.506 0-49.963-15.181-56.84-25.45" fill="#dcdbdb" fill-rule="evenodd"/><path d="M239.235 87.206v-7.635h1.698v5.09c0 2.734-1.443 1.973-1.698 2.545zm34.783-6.787h-1.697v-2.544h1.697v2.544zm-29.693-1.696v-1.697h1.698v1.697h-1.698zm-10.18-5.09l-5.09.848-.631 1.61 2.327 5.177v-2.546h1.698v3.394l-.849 1.696h1.698l2.25-2.36 1.99 3.21-1.58.014-.964 3.379 1.696 1.696.034-1.801 3.245.83 4.356-4.119v-1.697l2.564.802 1.824-1.416-4.554-1.458 2.711-.473.708-.989-.78-1.511c2.035-3.753-.582-2.147 3.466-2.589l-1.99 3.21c3.492-1.298 1.906-1.399 3.687 1.031h-1.697l-.849 3.393v.848c3.093 3.413-1.499.188 2.731 1.745l-1.033 3.345 2.545-3.392.848-2.546h1.697l-.072-2.314 5.783 1.422-.666 4.213-1.652.921V90.6h1.697l1.696-.849v1.696h-1.696l-1.9.042 1.075 5.168 2.52-.967h-1.695l.482-1.221 3.76-3.869.848-.849v-1.696l-1.824-.043.976-1.655-1.697-1.696-.808-5.099 2.505.01c-.809-2.066-1.615-.966.848-1.697l.848 2.544h3.393c-.841 2.325-.675 1.424-2.544 3.394l.044 3.466 1.652-.921 2.545-.848h2.545l6.788.848 3.392 1.697 1.698-.849-3.428-5.193-3.232.91-.976-1.655-.802 2.563-3.256-2.008-.184-3.1 1.697.848v-1.696h1.697l-1.697-.849h-1.697V75.33l-1.65.92-.895-.92-4.241-.849v1.697h-3.394l-1.652-.92-1.699 1.047.991 3.218-3.551-.31.775-2.204-1.651.017V75.33l-2.196-.806-1.123 3.336-.922-5.924-1.655-.975-.042-2.418h-3.393l.847-1.698.696-2.042-4.937 2.042-1.841 1.463 2.69 1.083.99.707-.99 1.838 1.993 2.358-3.69.187v-1.696h-3.393l-3.394-11.029-5.939-11.028-.849.847 8.412 20.185-5.018 1.873" fill="#464344" fill-rule="evenodd"/><path d="M190.879 184.767c-7.063 10.548-38.656 13.573-58.536 13.573v.849c5.056 0 18.203.778 20.676.38 6.186-.998 12.787-2.925 18.349-2.925 7.695-5.153 25.122-7.877 30.54-15.27l-9.95 5.456c2.46-5.453 25.542-17.708 28.613-29.21-2.5 1.674-9.387 10.594-14.203 14.64-2.085 1.751-15.207 12.122-15.49 12.507" fill="#9e9c9d" fill-rule="evenodd"/><path d="M278.26 77.875h-1.697v3.393h2.545l.976 1.654 3.232-.91 3.428 5.194 2.545.849h1.696l-.042 1.569-1.654.976h2.545l.096-1.913 3.296 1.913.85.847.848-1.696.847-3.394-3.392-4.24h-5.09c-2.605 0-5.09-.786-5.09-3.395l-.154-2.993-5.785 2.146" fill="#322f30" fill-rule="evenodd"/><path d="M105.196 56.665l5.938.849 1.655.976-.806 1.57-.849 1.696c1.072.567 2.805 1.697 4.242 1.697 6.593 0 22.695-3.83 23.754-3.393l1.696-2.546-2.483 1.006-.062-1.855c-.785.526-2.038 1.698-2.545 1.698-1.637 0-1.51-.268-2.545-.85l-1.696.85-4.242.847h-1.697v-1.696c-3.65 1.751-9.085 1.091-11.877-.849l-4.205-1.559-4.278 1.559" fill="#d3d2d2" fill-rule="evenodd"/><path d="M183.245 61.756l3.393 3.393h-16.12v1.696H178.155l.084 1.136 8.4 1.41c3.192.478.537-2.406 6.786-2.546-.994-1.429-.121-1.696-2.545-1.696h-2.545c.505-1.89.199-2.545 2.545-2.545l.872-.193 9.31 1.041.847-1.696V60.06l-3.39.207-14.425-.207h-.848v1.696" fill="#545051" fill-rule="evenodd"/><path d="M234.145 148.287l-3.21 1.992-.184-1.992.174 3.523-9.505 11.747-9.38 13.76-3.345-1.035-3.394 3.394h6.788l21.209-26.299 1.696-2.545 1.696-3.393v-.848l-2.545 1.696" fill="#403c3d" fill-rule="evenodd"/><path d="M200.211 71.936l-.848 1.696-2.024 2.24-.649-1.348-4.114.806 3.747.591-2.708 2.458 7.445-3.049v2.545l1.651-.921.848 2.635 3.44-.018.06-1.539 2.485-1.006v9.332l-1.595-.006-.95-5.933v5.939H205.3l4.232 3.387 1.707-3.388-.849-5.09v-2.544l2.564.802 1.679-2.499V75.33h-5.939c.91-3.409.23-2.456 4.241-2.545v-1.698l-4.24-.848v1.697l-2.486 1.006-.06 1.54h1.696l-1.006 2.483c-1.932-1.113.374-.788-1.539-.788-3.87 0-.99.08-5.09-4.24" fill="#605e5e" fill-rule="evenodd"/><path d="M112.831 8.31l-2.472-.045-.922-1.652-3.393 2.545c-4.805 0-10.66 2.352-11.028 6.787l-.521-.727-17.798 12.75.503.702c2.194-.586 12.75-9.061 16.13-11.018 4.514-2.613 14.672-6.323 20.422-7.69l-.92-1.652" fill="#747272" fill-rule="evenodd"/><path d="M158.643 66.845l11.028-.093v.942h-4.242l-.034 1.732-2.511-1.732c.505 1.891.197 2.545 2.545 2.545l2.54-.168 6.19-.01-1.943-3.216h-1.697v-1.696h16.119l-3.393-3.393-20.902 3.32-3.7 1.769" fill="#a5a3a4" fill-rule="evenodd"/><path d="M113.68 56.665c2.791 1.94 8.226 2.6 11.876.849v1.696h1.697v-2.545h2.545v1.698h1.697l1.696-.85c1.035.582.908.85 2.545.85.507 0 1.76-1.172 2.545-1.698l.062 1.855 2.483-1.006 2.544-1.61-24.6-.935-1.697-.849-3.394 2.545" fill="#464344" fill-rule="evenodd"/><path d="M22.057 136.41v2.546h1.697l.802-2.563 2.531 1.023 2.418-2.151c-.198 3.826-1.955 3.413-4.902 5.388h-2.546v.848l6.787 5.09.707-.99.99-.707 1.696-3.393v-1.697c-2.713 1.817-.594 1.393-4.241 1.697l4.241-5.091c.606-1.466 1.194-2.545-1.696-2.545h-3.394c-1.26 0-3.743 1.832-5.09 2.545" fill="#e2e2e2" fill-rule="evenodd"/><path d="M266.383 132.169h-.848l-1.655.976.806 4.114h1.697v1.697l-1.697-.849-4.908-2.123.667 2.972 7.681.83.802 2.563c2.408-.561 5.306-1.589 3.393 1.697l1.697 1.696v-1.696c-.295-3.546-.695-3.947-4.242-4.242l-.207-.849 4.449-.848-.043-1.87-4.126.977-.921-1.652v-3.393l-.848-.848-1.697.848" fill="#676565" fill-rule="evenodd"/><path d="M212.936 49.03l9.333 10.18-15.27-20.36c-5.599-.465-13.401-13.599-17.816-11.029 3.98 3.46 8.675 5.663 12.52 9.536 2.392 2.41 9.498 10.402 11.233 11.673" fill="#747272" fill-rule="evenodd"/><path d="M121.314 52.424l-2.484 1.006-.06-1.855 2.544.849zm-2.544-5.09l1.841 1.462-4.386.234v-1.696l-1.019 4.072-1.488 1.718-3.386-.718.786 2.459 5.955-.745 1.697.849 2.544-2.545 3.394.847V49.03h-1.697l.849-1.696-.293-3.067-4.797 3.067" fill="#bbbaba" fill-rule="evenodd"/><path d="M262.141 144.046l2.545 3.393 2.5.019-.803-2.564-.424-3.818 2.121 2.97 1.555.707.989-.707h1.697c1.913-3.286-.985-2.258-3.393-1.697l-.802-2.563-7.68-.83-.977 1.654 2.672 3.436" fill="#d7d7d7" fill-rule="evenodd"/><path d="M158.643 144.046l8.297 3.04 1.034-2.192v-1.696c-3.94-.328-1.484.91-3.394-1.697l4.243-.848v-1.697l-10.107 2.03-.073 3.06M99.257 162.71l-.848-2.545h2.545l-1.006-2.485-1.54-.06v1.696l-1.992-2.357-.672 2.333c-2.265-1.573-4.897-2.268-1.577-3.37v-2.545h-1.696l-2.489 1.288c1.776 7.429 5.38 5.147 5.882 9.741l3.393-1.696" fill="#a9a8a8" fill-rule="evenodd"/><path d="M75.503 79.571l.849 7.635h1.697v1.697l1.472-.005.224-13.568h-.849v5.938h-.847V75.33h-2.546v4.241" fill="#514e4f" fill-rule="evenodd"/><path d="M115.376 165.255l-5.231-6.08.99-.708-.849-1.696h-1.697l-2.545-2.545-2.563-.802 1.04 4.152c4.881 1.393 8.9 12.759 10.855 7.679" fill="#444142" fill-rule="evenodd"/><path d="M139.978 88.902h-1.697v-1.696h-1.696V76.177h5.09l1.698-.847-7.585-1.973-7.687-.572-.848 1.696h8.483v12.725c0 2.845 2.68 3.568 4.242 1.696" fill="#868484" fill-rule="evenodd"/><path d="M200.211 71.936c4.1 4.32 1.22 4.241 5.09 4.241 1.913 0-.393-.325 1.54.788l1.005-2.484h-1.696l.06-1.539 2.485-1.006V70.24l-6.787-.848-1.654.975-.043 1.57" fill="#373334" fill-rule="evenodd"/><path d="M246.023 141.501l.847 1.696 1.974-2.912 3.965 2.912.707-.99 2.584 1.962.103 1.573 1.696-1.696-4.42-6.679-3.215-.108-2.358 1.993-.187 2.25h-1.696" fill="#dcdbdb" fill-rule="evenodd"/><path d="M145.069 152.529c0 1.472.695.849 2.544.849 2.947 0 1.295-1.697 4.242-1.697h.848c3.443 0 2.2-2.08 1.697-4.242h-.849v1.696l-2.545-.848-4.138-1.922 4.382 4.162-7.756-2.537 2.235 2.291-.66 2.248" fill="#bfbebe" fill-rule="evenodd"/><path d="M163.733 136.41h1.696v1.698h-2.545l.849-1.698zm0 0l-3.362-.951-.032 3.497 1.824.467-6.083 1.126 2.563 3.497.073-3.06 10.107-2.03v1.697l.96-4.232-3.505-.01v-1.697l-2.545 1.696" fill="#5c595a" fill-rule="evenodd"/><path d="M179.85 138.108l-1.02 4.197 2.718.892.382-4.368.466 1.824 1.57-.043.975-1.654h3.393c-.276-2.537-.394-2.157-1.696-3.393h2.545-8.484v1.696c2.065-.808.965-1.614 1.697.849h-2.546" fill="#9e9c9d" fill-rule="evenodd"/><path d="M201.06 77.875l.808 3.385-.808 5.098 2.544-.848v-1.698h1.697v2.546H207V79.57l-3.44.018-.848-2.635-1.65.921" fill="#c1c0c1" fill-rule="evenodd"/><path d="M254.506 82.964l.92 1.652-.92.894.06 2.386 2.485 1.007.404-6.104 2.141 4.407 1.652-.921.666-4.213-5.783-1.422.072 2.314h-1.697" fill="#636060" fill-rule="evenodd"/><path d="M178.154 140.652l-1.463 1.842-.233-2.69h-5.09l.92 1.652-1.77.045v1.696h1.698v2.545l4.234.88 1.704-5.97" fill="#5a5758" fill-rule="evenodd"/><path d="M184.093 77.026l-2.418 5.048-.976-1.655.027 3.035 3.153.067 2.759-2.254-.56-.806.866-5.46 2.239 2.025v-2.545h-3.394l-1.696 2.545" fill="#b2b1b1" fill-rule="evenodd"/><path d="M262.141 121.989h1.697l.952 3.36-1.801.033 1.697 2.545 1.8-.88-.95-3.362h2.55l-.006-5.09v-1.696l-1.357.333-4.581 4.757" fill="#8d8b8b" fill-rule="evenodd"/><path d="M277.411 109.264c0 1.841 6.24-.139 7.635 5.09l4.634-.565-3.785-2.829-4.241-2.545-.849-2.545h-1.697l-.802.83.802 2.564h-1.697" fill="#747272" fill-rule="evenodd"/><path d="M189.183 27.821c4.415-2.57 12.217 10.564 17.816 11.029l-15.051-12.997-.534 1.016-10.281-3.443 8.05 4.395" fill="#a9a8a8" fill-rule="evenodd"/><path d="M246.023 71.936h-4.243v-2.545h4.243l-2.69-1.084 1.84-1.462-4.838-.119-2.796-4.97 3.394 11.029h3.392v1.696l3.691-.187-1.993-2.358" fill="#9e9c9d" fill-rule="evenodd"/><path d="M99.257 162.71c2.247 1.504 5.532 6.786 6.787 6.786 1.189 0 1.697-1.156 1.697-2.545 0-1.144-.942-1.272-1.697-1.696l-3.235-.909-1.007-2.485-.848-1.696H98.41l.848 2.545" fill="#4d494a" fill-rule="evenodd"/><path d="M208.695 176.282l3.345 1.034 9.38-13.759-12.725 12.725z" fill="#7b7979" fill-rule="evenodd"/><path d="M210.391 81.267h1.698v2.545c0 3.244.26.31-.849 2.545l3.296-.005.945-6.78-.847-2.546-1.679 2.499-2.564-.803v2.546" fill="#8d8b8b" fill-rule="evenodd"/><path d="M158.643 66.845h-1.698l-7.635 1.697.028 1.885 5.062-1.036c1.199.594 1.409.848 3.394.848l3.611-.187-2.762-3.207" fill="#8b8889" fill-rule="evenodd"/><path d="M75.503 54.969l9.332 2.545.849-1.697H82.29V54.12h2.544c-.884-1.32-1.124-2.545-3.393-2.545l-1.743-.018-.817 2.447-3.38.965" fill="#7f7d7e" fill-rule="evenodd"/><path d="M214.634 75.33v1.696l.847 2.545.894-1.769 1.794 1.062.706-.989-2.522-.969-.023-1.576h4.241l-.043-2.474-1.653-.92-5.944 1.671 1.703 1.723" fill="#e7e6e6" fill-rule="evenodd"/><path d="M78.049 156.771l.847 1.696h1.697l1.614-3.34-2.462-5.143h1.697l-4.256-.103 1.834 2.546-1.82.102v1.697h1.696l-.847 2.545" fill="#5c595a" fill-rule="evenodd"/><path d="M234.994 88.055l.965-3.379 1.58-.015-1.99-3.21-2.251 2.362v1.697H231.6v-1.697l.849-1.697-1.698-.848-.62 3.35.62 4.285c3.454-.378 3.394-1.2 3.394-5.09h.849v4.242" fill="#656263" fill-rule="evenodd"/><path d="M233.298 153.377l2.545.85 1.823-.807-.976 1.655 7.245 6.397.693-.662-2.848-4.888c-3.121-.26-3.132-.27-3.392-3.393h-3.394v-1.696l-1.696 2.545" fill="#9a9898" fill-rule="evenodd"/><path d="M32.237 161.012h1.697v3.394l1.697.849v-1.698h1.697l.848-1.696-.103-4.256-3.284 1.721-.006-1.706-2.545 3.393" fill="#c6c5c5" fill-rule="evenodd"/><path d="M264.686 147.439l.85 3.393.06-1.538 2.484-1.007v1.697h2.544l.016-1.58 3.378-.965h-3.394v-3.393l-.989.706-1.555-.706-1.697.848.802 2.563-2.499-.018" fill="#696767" fill-rule="evenodd"/><path d="M72.958 157.62l4.242 5.09v-1.698l3.393-2.545h-1.697l-.847-1.696-5.09-3.394v1.698l5.285 4.894-3.843-2.022-1.443-.327" fill="#c8c7c7" fill-rule="evenodd"/><path d="M220.571 75.33h-.847v2.545c1.902.442 1.95.847 4.241.847 1.738 0 2.796-.628 2.661-2.56l-.965-3.377-.042 1.347-3.308 1.07 1.605 1.162-3.345-1.034" fill="#585556" fill-rule="evenodd"/><path d="M242.629 145.743h1.696l.006-2.555 3.46 1.662-.921-1.653-.848-1.696 1.007-2.485c-4.174 1.394.365-1.749-2.704 1.636v-1.696h-1.696v.848l.847.848c-3 1.212-.645-.566-2.544 3.394l2.618.045-.921 1.651" fill="#5c595a" fill-rule="evenodd"/><path d="M195.97 134.714l6.968.181 2.505-2.868-.99-.706h-5.938v1.696l-2.545 1.697" fill="#bbbaba" fill-rule="evenodd"/><path d="M198.515 131.321h5.938l1.697-.848-.008-1.64-8.327-.944.7 3.432" fill="#545051" fill-rule="evenodd"/><path d="M168.823 58.363c1.033.58.906.847 2.545.847h.848c2.174 0 2.05.205 3.37.524l5.113-.524.061 1.855 2.485-1.005h.848c-1.448-1.259-1.474-1.698-4.243-1.698l-4.114-.042-.976-1.655-1.654.976-.89-1.823-.06 2.702-2.627-1.147-.706.99" fill="#a9a8a8" fill-rule="evenodd"/><path d="M30.54 70.239c3.155 6.575.177 2.08 6.067 5.91l-.976-5.062-1.273-.423-2.841-2.079-.976 1.654" fill="#8b8889" fill-rule="evenodd"/><path d="M263.838 84.661l1.697 1.696.848 1.698v1.696c1.035-.581.907-.848 2.545-.848l2.672-.382-1.824-.466v-1.697l-1.652.92-.044-3.465h-1.697l.848-2.545h-1.696l-.36 3.366-1.337.027" fill="#585556" fill-rule="evenodd"/><path d="M115.376 2.371l4.242.848c3.438-.077 6.142-.507 7.587-2.36L123.898 0l-8.522 2.371" fill="#7b7979" fill-rule="evenodd"/><path d="M238.388 144.894l2.545 1.697h.847l.849-.849.921-1.65-2.617-.046c1.898-3.96-.457-2.182 2.543-3.393l-.847-.85-3.36.953-.881 4.138" fill="#444142" fill-rule="evenodd"/><path d="M125.556 77.026l-.007 1.657 5.098-.808c0 3.678-.561 8.806.849 11.027 0-2.638-.658-7.224.847-8.483l-.046-1.679-.763-2.226-5.977.512" fill="#8b8889" fill-rule="evenodd"/><path d="M181.548 143.198l-2.523.967-.022 1.578 2.545-.85v1.698l2.703-.061-.56-2.356 1.25-5.218-.976 1.654-1.569.042-.466-1.823-.382 4.368" fill="#c6c5c5" fill-rule="evenodd"/><path d="M269.776 86.358v1.697l1.824.466-2.672.382c-1.638 0-1.51.267-2.545.848l-.848.849 5.134-.072 1.652.92.85-2.545-.85-3.393-2.545.848" fill="#bbbaba" fill-rule="evenodd"/><path d="M264.686 127.928l-1.697.848 3.394 1.696v1.697l1.697-.848 3.393-2.545-.184-1.404-3.209-1.99c-.09 4.012.863 3.332-2.419 4.2l-.975-1.654" fill="#8d8b8b" fill-rule="evenodd"/><path d="M206.999 79.571v.848l.95 5.934 1.595.005v-9.332l-2.485 1.007-.06 1.538" fill="#292627" fill-rule="evenodd"/><path d="M296.924 89.751l.847-1.696h2.545v1.696l1.37-.306 1.98-2.013 4.287.623v-1.698H297.77l-.847 3.394" fill="#868484" fill-rule="evenodd"/><path d="M33.086 64.301l.06 3.235 2.485 1.006 1.4-2.357 1.993 2.357v-5.09l-3.177.097-1.793 3.273-.968-2.52" fill="#9c9a9b" fill-rule="evenodd"/><path d="M186.638 81.267l2.545-2.545h3.393V75.33l-1.866 1.526-1.527.17-2.24-2.025-.865 5.46.56.806" fill="#4d494a" fill-rule="evenodd"/><path d="M270.624 98.235h2.546v1.696h-2.546v-1.696zm0-.849v.849l-2.496 2.36 3.378 1.138 3.36-.953 1.715-2.499-2.517.82.795-2.593-4.235.878" fill="#bfbebe" fill-rule="evenodd"/><path d="M214.634 75.33l-1.703-1.723 5.944-1.67-5.939-.85v1.698c-4.01.089-3.33-.864-4.24 2.545h5.938" fill="#c4c3c3" fill-rule="evenodd"/><path d="M207.846 142.349h9.332v-1.697l-7.604-1.075c-1.539 4.272 1.684-.32-1.728 2.772" fill="#676565" fill-rule="evenodd"/><path d="M285.046 88.055l-3.392-1.698c-1.304 1.237-1.42.858-1.698 3.394 2.537-.277 2.158-.394 3.235-1.636L284.2 90.6l-2.698.271 2.47 1.063 2.773-1.334-.043-1.57-1.655-.975" fill="#b2b1b1" fill-rule="evenodd"/><path d="M237.539 149.135l-.921.894.982 1.81 2.47-.976 4.4 1.536-2.69-3.264v-2.544h-.847l-1.995 2.358-1.4.186" fill="#989696" fill-rule="evenodd"/><path d="M67.868 58.363l-.848-.85-5.09 9.332c2.96-1.981 4.804-3.825 6.86-6.831l-.922-1.651" fill="#d3d2d2" fill-rule="evenodd"/><path d="M22.057 138.956v1.697h2.546c2.947-1.975 4.704-1.562 4.902-5.388l-2.418 2.151-2.53-1.023-.803 2.563h-1.697" fill="#5e5b5c" fill-rule="evenodd"/><path d="M27.147 156.771l-.81.699-3.431-.699.06 2.703 2.484-1.007 2.618.045-.92 1.653h1.696l1.872-5.019-1.872-.071v1.696h-1.697" fill="#b2b1b1" fill-rule="evenodd"/><path d="M242.629 138.956h1.696v1.697c3.069-3.385-1.47-.243 2.704-1.637l-1.006 2.485h1.696l.187-2.248 2.358-1.994-4.285-.621.044 1.47-3.36-.953-.034 1.801" fill="#939192" fill-rule="evenodd"/><path d="M19.512 140.652l1.923-.102-1.923-4.14H16.12l1.021 4.199 2.372.044" fill="#e2e2e2" fill-rule="evenodd"/><path d="M30.54 144.894l-.989.707-.707.99.707.99.99.707.893-.922 1.696.994 1.653-.921.848-.848.848-2.545h-1.696c-3.983 2.918.748 1.999-4.242 2.545v-1.697" fill="#676565" fill-rule="evenodd"/><path d="M173.913 17.641l2.545.849c.016-.014 1.582-.849 1.696-.849 3.244 0 .31-.26 2.687.99l.707-.99-8.484-3.392.849 3.392" fill="#6c696a" fill-rule="evenodd"/><path d="M89.925 68.543l.857 1.727 4.075-.94 1.007-2.485h-1.697l-.06-1.772-4.182 3.47" fill="#706d6e" fill-rule="evenodd"/><path d="M263.838 84.661l1.337-.027.36-3.367h1.696v-.848l-.848-2.544c-2.463.731-1.657-.369-.848 1.696l-2.505-.009.808 5.099" fill="#a09f9f" fill-rule="evenodd"/><path d="M271.473 133.017l-.975 1.654 1.823.891h5.09v-1.697h-2.545l.04-1.548-3.433.7" fill="#6c696a" fill-rule="evenodd"/><path d="M274.018 147.439c2.607-1.909 1.37.547 1.697-3.393h-1.697v1.696l-1.697-1.696h-1.697v3.393h3.394" fill="#393536" fill-rule="evenodd"/><path d="M246.87 80.419l-2.711.473 4.554 1.458-1.824 1.416-2.564-.802v1.697h4.243l.847-.849v-4.241l-2.545.848" fill="#aeacac" fill-rule="evenodd"/><path d="M32.237 141.501l.965-3.379 1.58-.015v-1.697h-2.545l-4.241 5.091c3.647-.304 1.528.12 4.241-1.697v1.697" fill="#848182" fill-rule="evenodd"/><path d="M257.899 75.33v1.696l1.651-.017-.775 2.203 3.551.31-.99-3.217 1.698-1.048 1.652.92-.08-1.957-5.717 1.816-.99-.706" fill="#7b7979" fill-rule="evenodd"/><path d="M123.86 88.055h1.696v-8.484h-1.696v8.484" fill="#d3d2d2" fill-rule="evenodd"/><path d="M246.87 80.419l2.545-.848v3.393l.849-3.393h1.697c-1.78-2.43-.195-2.329-3.687-1.031l1.99-3.21c-4.048.443-1.431-1.164-3.465 2.589l.779 1.511-.708.989" fill="#676565" fill-rule="evenodd"/><path d="M181.548 17.641l-.707.99c-2.377-1.25.557-.99-2.687-.99-.114 0-1.68.835-1.696.849l-2.545-.849h-.85l6.623 3.025 3.728-1.497-1.866-1.528" fill="#bfbebe" fill-rule="evenodd"/><path d="M134.04 71.936l2.578-.952 3.287.907.921-1.652-.848-1.697h-1.697v1.697h-1.696v-1.697l-1.592.033-.953 3.361" fill="#6e6b6c" fill-rule="evenodd"/><path d="M290.136 91.447l-.362 1.47-1.334 2.773c3.438-.801 2.555-.228 3.496-2.254l4.14-1.989-.85-.847h-1.696v1.696l-3.394-.848" fill="#cac9c9" fill-rule="evenodd"/><path d="M198.515 67.694l-.849.848h1.697v5.09l.848-1.696.043-1.57 1.654-.975-.848-.849h3.393c-2.38-3.248-1.53-1.215-5.938-.848" fill="#a7a5a6" fill-rule="evenodd"/><path d="M115.376 165.255c3.81-2.1.378 2.281 1.697-1.698-2.719-.983-3.779-3.507-5.939-5.09l-.99.708 5.232 6.08" fill="#aeacac" fill-rule="evenodd"/><path d="M260.445 56.665c3.601-.961 1.484-1.696 4.241-1.696h2.545c-.993-1.43-.12-1.698-2.545-1.698h-1.697c-2.414 0-2.544.984-2.544 3.394" fill="#5e5b5c" fill-rule="evenodd"/><path d="M273.17 88.902h1.696V90.6l3.394-3.394h-3.394V85.51h-2.545l.85 3.392" fill="#8f8d8d" fill-rule="evenodd"/><path d="M253.658 71.936l1.696-2.545h-1.696l-.012-1.585-4.23-.961-.848 1.697h3.393l.042 2.42 1.655.974" fill="#777475" fill-rule="evenodd"/><path d="M229.055 74.481l5.09-.849-4.931-.06-1.165-2.546 1.006-2.484c-3.734-.997-4.83-6.516-6.786-9.332l6.786 15.271" fill="#989696" fill-rule="evenodd"/><path d="M34.783 144.046h1.696l-.848 2.545 1.697 1.697v-1.697l3.733-4.866-3.114 1.11-3.164 1.211" fill="#c8c7c7" fill-rule="evenodd"/><path d="M159.49 148.287l5.09.848.976-1.654-7.705-1.942 1.597 1.178.042 1.57" fill="#939192" fill-rule="evenodd"/><path d="M246.023 71.936l.99-1.839-.99-.706h-4.243v2.545h4.243" fill="#ededed" fill-rule="evenodd"/><path d="M239.235 87.206c.255-.572 1.698.189 1.698-2.545v-5.09h-1.698v7.635" fill="#a5a3a4" fill-rule="evenodd"/><path d="M265.535 132.169h.848v-1.697l-3.394-1.696h-3.393v.848h2.545c.84 2.317-.043 1.744 3.394 2.545" fill="#d3d2d2" fill-rule="evenodd"/><path d="M195.97 70.239h-4.242v1.697l6.042-.032-.951-3.362c-3.356.998-.514-.263-.849 1.697" fill="#7b7979" fill-rule="evenodd"/><path d="M131.495 88.902l1.911-.027-1.063-8.456c-1.505 1.258-.848 5.845-.848 8.483" fill="#ebebeb" fill-rule="evenodd"/><path d="M32.237 61.756l.893.92 1.653-.92h1.696c-.91-3.409-.23-2.456-4.242-2.546v2.546" fill="#8d8b8b" fill-rule="evenodd"/><path d="M103.5 59.21h5.937l-.01-1.585-4.231-.96-1.697 2.545" fill="#6e6b6c" fill-rule="evenodd"/><path d="M236.69 146.591v.848l.849 1.696 1.399-.186 1.995-2.358-2.545-1.697-1.698 1.697" fill="#d3d2d2" fill-rule="evenodd"/><path d="M127.155 43.056l1.795.035c.421-5.067 1.348-1.455 2.545-5.937l-2.244.108-2.096 5.794" fill="#b9b7b8" fill-rule="evenodd"/><path d="M248.568 84.661v2.545c4.19 1.564-.71-1.735 2.545 1.696l1.033-3.344c-4.23-1.558.362 1.667-2.73-1.746l-.848.85" fill="#848182" fill-rule="evenodd"/><path d="M156.098 77.875l.847 1.696h2.545c1.91-2.606-.546-1.368 3.394-1.696l-2.509-1.761-2.48 1.883-1.797-.122" fill="#989696" fill-rule="evenodd"/><path d="M72.958 157.62l1.443.327 3.843 2.022-5.286-4.894v-1.698l-1.913 3.298 1.913.945" fill="#5c595a" fill-rule="evenodd"/><path d="M178.154 77.026l1.211-1.926 1.395 2.933 2.485-1.007c-1.727-2.578-1.069-2.455-5.091-2.545v2.545" fill="#7f7d7e" fill-rule="evenodd"/><path d="M279.108 81.267h-2.545v-1.696l-1.697-.849.184 3.1 3.256 2.01.802-2.565" fill="#b2b1b1" fill-rule="evenodd"/><path d="M247.719 84.661h-1.696l-.363 1.468-1.335 2.773 3.553-.06-.625-2.357.466-1.824" fill="#7d7b7b" fill-rule="evenodd"/><path d="M268.08 83.813c1.869-1.97 1.703-1.07 2.544-3.394h-3.393v.849l-.848 2.544h1.697" fill="#8b8889" fill-rule="evenodd"/><path d="M121.314 79.571c.755 0 1.697-.942 1.697-1.696 0-1.737-1.747-1.561-3.393-1.697.137 1.645-.04 3.393 1.696 3.393" fill="#868484" fill-rule="evenodd"/><path d="M92.47 153.377h1.697v-4.242h-.848v2.546c-3.068-3.386 1.47-.244-2.545-1.697.277 2.537.393 2.158 1.697 3.393" fill="#b2b1b1" fill-rule="evenodd"/><path d="M257.711 168.196l6.127.453-.16-2.931-5.967 2.478z" fill="#777475" fill-rule="evenodd"/><path d="M27.147 70.239v1.697c1.93 3.645-.23 1.54 2.545 2.545-.532-2.285-1.824-3.566 0-5.09l-1.569-.806-.976 1.654" fill="#b0aeaf" fill-rule="evenodd"/><path d="M281.654 108.415l4.241 2.545.788-2.387-2.545-1.164-2.484 1.006" fill="#c8c7c7" fill-rule="evenodd"/><path d="M230.751 51.575l.85-.848-5.94-8.483c.577 2.473 3.704 7.336 5.09 9.331" fill="#9c9a9b" fill-rule="evenodd"/><path d="M63.626 154.226l.85-.849c-1.818-2.712-1.394-.593-1.698-4.242h-1.696c.282 3.394.503 3.595 2.544 5.091" fill="#676565" fill-rule="evenodd"/><path d="M136.585 149.984h-1.697v-1.696l-1.652.92-.893-1.77c.26 3.122.272 3.135 3.393 3.395v1.696l1.855-.06-1.006-2.485" fill="#959394" fill-rule="evenodd"/><path d="M195.97 134.714l2.545-1.697v-1.696l-3.51.015.965 3.378" fill="#9a9898" fill-rule="evenodd"/><path d="M106.044 165.255v-1.698h-1.696v-1.696h-2.546l1.007 2.485 3.235.909" fill="#a5a3a4" fill-rule="evenodd"/><path d="M230.751 148.287l.184 1.992 3.21-1.992v-2.545l-4.241.85h3.394l-.024.728-2.523.967" fill="#6e6b6c" fill-rule="evenodd"/><path d="M19.512 140.652l2.545.85v-5.092h-2.545l1.923 4.14-1.923.102" fill="#a9a8a8" fill-rule="evenodd"/><path d="M119.618 154.226c4.078 1.476-.685.22 3.393 1.696v-3.393c-1.994.167-3.088-.09-3.393 1.697" fill="#7b7979" fill-rule="evenodd"/><path d="M167.974 144.894l.849-4.241-4.243.848c1.91 2.606-.546 1.369 3.394 1.696v1.697" fill="#514e4f" fill-rule="evenodd"/><path d="M290.136 90.6v.847l3.394.85V90.6h1.696l-3.296-1.913-.096 1.913h-1.698" fill="#777475" fill-rule="evenodd"/><path d="M218.875 77.875h.849V75.33h-3.394l.023 1.576 2.522.969" fill="#9a9898" fill-rule="evenodd"/><path d="M31.39 162.71l.847 1.696h1.697v-3.394h-1.697l-.848 1.698" fill="#7d7b7b" fill-rule="evenodd"/><path d="M164.58 151.681l3.369 1.743c-.326-3.264.504-2.538-3.369-3.44v1.697" fill="#7b7979" fill-rule="evenodd"/><path d="M173.913 138.956h1.696l-.92-1.652 1.769-.045v-1.696l-3.433.7.888 2.693" fill="#696767" fill-rule="evenodd"/><path d="M311.345 77.026l5.939.849c-.994-1.431-.121-1.698-2.545-1.698h-3.394v.85" fill="#6e6b6c" fill-rule="evenodd"/><path d="M268.928 135.562h3.393l-1.823-.89.975-1.655-2.545-.848v3.393" fill="#abaaaa" fill-rule="evenodd"/><path d="M201.06 86.358v2.545c3.059-.817 2.269-.078 2.544-3.393l-2.544.848" fill="#6c696a" fill-rule="evenodd"/><path d="M85.717 150.936c1.876 2.503-.58 1.265 3.36 1.593l-.033-2.649-3.327 1.056" fill="#8b8889" fill-rule="evenodd"/><path d="M275.715 102.476c1.096 1.155 2.298 2.239 3.393 3.394v-2.545l-1.65.017.766-2.626-2.509 1.76" fill="#959394" fill-rule="evenodd"/><path d="M127.253 59.21l4.242-.848h-1.697v-1.697h-2.545v2.545" fill="#9e9c9d" fill-rule="evenodd"/><path d="M172.216 55.817l.89 1.824 1.654-.976.849-1.696-4.383.141.99.707" fill="#5e5b5c" fill-rule="evenodd"/><path d="M33.934 149.984l.849-2.545-1.653.921-1.696-.994-.893.922 1.866 1.526 1.527.17" fill="#b2b1b1" fill-rule="evenodd"/><path d="M211.24 86.358c1.109-2.235.849.698.849-2.545v-2.545h-1.698l.85 5.09" fill="#f0efef" fill-rule="evenodd"/><path d="M176.458 139.804l.233 2.69 1.463-1.842v-2.545h-1.696v1.697" fill="#c1c0c1" fill-rule="evenodd"/><path d="M122.163 38.85h3.393v-1.696h-3.393v1.696" fill="#a7a5a6" fill-rule="evenodd"/><path d="M11.029 133.017h3.393v-1.696h-3.393v1.696" fill="#706d6e" fill-rule="evenodd"/><path d="M129.798 49.879l-.048-1.512-3.346-1.033c.817 3.058.077 2.268 3.394 2.545" fill="#c1c0c1" fill-rule="evenodd"/><path d="M118.77 47.334h-2.545v1.696l4.386-.234-1.841-1.462" fill="#444142" fill-rule="evenodd"/><path d="M272.321 75.33l.894.92 1.651-.92v1.696h1.697l-.897-2.73-3.345 1.034" fill="#a7a5a6" fill-rule="evenodd"/><path d="M130.646 44.789l2.545.848v-2.546h-2.545v1.698" fill="#545051" fill-rule="evenodd"/><path d="M201.06 147.439l-2.545-.848-1.527 3.563 1.587-2.025 2.485 1.006v-1.696" fill="#868484" fill-rule="evenodd"/><path d="M134.888 48.183h2.546l-.061-1.54-2.485-1.005v2.545" fill="#bdbcbc" fill-rule="evenodd"/><path d="M173.959 155.94l2.499-.018v-2.545l-1.54.062-.96 2.501" fill="#c4c3c3" fill-rule="evenodd"/><path d="M230.751 81.267l1.698.85v-3.395h-1.698v2.545" fill="#d1d0d0" fill-rule="evenodd"/><path d="M201.06 63.452l2.544.85v-1.698h2.546l-.015-.964-3.52 1.105-.707-.989-.848 1.696" fill="#a9a8a8" fill-rule="evenodd"/><path d="M25.45 86.358h1.697c-.328-3.94.91-1.484-1.697-3.394v3.394" fill="#8f8d8d" fill-rule="evenodd"/><path d="M100.106 58.363c3.94-.328 1.484.91 3.393-1.698h-3.393v1.698" fill="#636060" fill-rule="evenodd"/><path d="M289.289 90.6l1.654-.976.042-1.569h-1.696l-.99 1.837.99.708" fill="#a7a5a6" fill-rule="evenodd"/><path d="M191.728 135.562h2.545v-2.545c-2.775 1.004-.617-1.1-2.545 2.545" fill="#545051" fill-rule="evenodd"/><path d="M140.826 61.756l-.706-.99-.99-.706-2.535 2.656 4.231-.96" fill="#888687" fill-rule="evenodd"/><path d="M169.671 157.62c3.254-3.433-1.645-.134 2.545-1.698v-1.696l-2.485 1.006-.06 2.388" fill="#989696" fill-rule="evenodd"/><path d="M106.044 163.557l2.484 1.007c-1.393-2.329-.997-2.705-3.332-3.552l.848 2.545" fill="#bbbaba" fill-rule="evenodd"/><path d="M262.141 155.075l1.697.848c1.563-4.19-1.735.71 1.697-2.546h-2.546l-.848 1.698" fill="#918f90" fill-rule="evenodd"/><path d="M256.203 145.743l-.103-1.574-2.584-1.961-.707.99 3.394 2.545" fill="#676565" fill-rule="evenodd"/><path d="M151.006 148.287l2.545.848v-1.696l-2.52-.968-.025 1.816" fill="#545051" fill-rule="evenodd"/><path d="M156.098 77.875l1.006-2.485-2.704.787v1.698h1.698" fill="#a9a8a8" fill-rule="evenodd"/><path d="M9.332 128.776l3.393.848c-1.563-4.19 1.735.71-1.696-2.545l-.99.707-.707.99" fill="#888687" fill-rule="evenodd"/><path d="M191.728 135.562h-1.698v2.545h1.698v-2.545" fill="#bfbebe" fill-rule="evenodd"/><path d="M249.415 166.103h2.546v-1.697h-2.546v1.697" fill="#959394" fill-rule="evenodd"/><path d="M276.563 91.447h2.545v-1.696h-2.545v1.696" fill="#bbbaba" fill-rule="evenodd"/><path d="M272.321 91.447l2.545-.847v-1.698h-1.696l-.849 2.545" fill="#514e4f" fill-rule="evenodd"/><path d="M110.286 156.771l-2.545-2.545h-1.697l2.545 2.545h1.697" fill="#b4b3b3" fill-rule="evenodd"/><path d="M272.321 80.419h1.697v-2.544h-1.697v2.544" fill="#7d7b7b" fill-rule="evenodd"/><path d="M125.556 77.026v-2.545h-1.696v2.545h1.696" fill="#777475" fill-rule="evenodd"/><path d="M25.45 76.178l2.546.848-.06-1.538-2.486-1.007v1.697" fill="#656263" fill-rule="evenodd"/><path d="M86.532 59.21l-1.697-1.696-1.664 2.648 3.361-.952z" fill="#a7a5a6" fill-rule="evenodd"/><path d="M27.147 160.165l.921-1.652-2.618-.045v1.697h1.697" fill="#4b4748" fill-rule="evenodd"/><path d="M20.36 76.178l-1.696-.848v2.545h1.696v-1.697" fill="#848182" fill-rule="evenodd"/><path d="M163.733 136.41l-.85 1.698h2.546v-1.698h-1.696" fill="#d7d7d7" fill-rule="evenodd"/><path d="M266.383 144.894l1.697-.848-2.121-2.97.424 3.818z" fill="#a3a1a1" fill-rule="evenodd"/><path d="M111.983 60.06l.806-1.57-1.655-.976-.806 1.57 1.655.976" fill="#7b7979" fill-rule="evenodd"/><path d="M264.686 147.439l-2.545-3.393c.275 3.315-.513 2.576 2.545 3.393" fill="#827f80" fill-rule="evenodd"/><path d="M5.938 141.501v-2.545H3.393a67.373 67.373 0 0 1 2.545 2.545" fill="#aeacac" fill-rule="evenodd"/><path d="M39.024 68.543l.802 2.527-.802 2.563 2.022-.092-2.022-4.999" fill="#cccbcc" fill-rule="evenodd"/><path d="M179.85 138.108h2.546c-.732-2.463.368-1.657-1.697-.85v-1.695l-.849 2.545" fill="#656263" fill-rule="evenodd"/><path d="M72.11 86.358h1.697V84.66H72.11v1.697" fill="#6c696a" fill-rule="evenodd"/><path d="M244.325 78.722h1.698v-1.696h-1.698v1.696" fill="#8b8889" fill-rule="evenodd"/><path d="M233.298 83.813H231.6v1.697h1.698v-1.698" fill="#a7a5a6" fill-rule="evenodd"/><path d="M105.196 63.452h1.697v-1.696h-1.697v1.696" fill="#636060" fill-rule="evenodd"/><path d="M295.226 79.571h1.698v-1.696h-1.698v1.696" fill="#b6b5b5" fill-rule="evenodd"/><path d="M35.63 165.255h1.698v-1.698H35.63v1.698" fill="#636060" fill-rule="evenodd"/><path d="M211.24 64.301h1.696v-1.697h-1.696V64.3" fill="#a3a1a1" fill-rule="evenodd"/><path d="M154.4 155.922v1.698h1.698v-1.698H154.4" fill="#9c9a9b" fill-rule="evenodd"/><path d="M72.11 143.198v1.696h1.697v-1.696H72.11" fill="#727070" fill-rule="evenodd"/><path d="M252.809 61.756h1.697V60.06h-1.697v1.696" fill="#b2b1b1" fill-rule="evenodd"/><path d="M273.17 54.969h1.696V53.27h-1.696v1.698" fill="#777475" fill-rule="evenodd"/><path d="M273.655 123.915l.363-2.775-1.994.188 1.631 2.587z" fill="#7b7979" fill-rule="evenodd"/><path d="M196.521 84.474l1.994.187-.362-2.774-1.632 2.587z" fill="#c4c3c3" fill-rule="evenodd"/><path d="M158.345 157.432l1.994.188-.363-2.775-1.63 2.587z" fill="#8f8d8d" fill-rule="evenodd"/><path d="M276.563 144.894l1.995-.186-1.995-2.36v2.546z" fill="#727070" fill-rule="evenodd"/><path d="M121.314 52.424l-2.544-.849.06 1.855 2.484-1.006z" fill="#5e5b5c" fill-rule="evenodd"/><path d="M165.429 77.875l2.545-.849-2.484-1.006-.061 1.855z" fill="#9a9898" fill-rule="evenodd"/><path d="M253.658 85.51h.848l.92-.894-.92-1.652-.848 2.546" fill="#b9b7b8" fill-rule="evenodd"/><path d="M28.42 61.331l3.393-1.696-.848-.849-2.546 2.545z" fill="#6c696a" fill-rule="evenodd"/><path d="M13.574 144.046h2.545v-1.697l-2.545 1.697z" fill="#bfbebe" fill-rule="evenodd"/><path d="M264.686 137.259v.849l1.697.848v-1.697h-1.697" fill="#b6b5b5" fill-rule="evenodd"/><path d="M175.609 139.804v-.848h-1.696l-.85.848h2.546" fill="#bfbebe" fill-rule="evenodd"/><path d="M29.692 161.861l.976-1.654-1.824-.042.848 1.696z" fill="#8d8b8b" fill-rule="evenodd"/><path d="M266.383 88.055l-.848-1.698-.976 1.656 1.824.042z" fill="#a7a5a6" fill-rule="evenodd"/><path d="M124.708 49.03l-.848-1.696-.849 1.696h1.697z" fill="#585556" fill-rule="evenodd"/><path d="M236.69 155.075l.976-1.655-1.823.806.847.849z" fill="#4d494a" fill-rule="evenodd"/><path d="M131.973 177.142v-8.95h18.812v44.037h-18.79l-.031-5.93-4.879-5.979v11.909h-18.787v-44.037h16.53l7.145 8.95" fill="#fff" fill-rule="evenodd"/><path d="M112.52 172.415h10.276l13.4 16.784v-16.784h10.367v35.591h-10.368l-.016-3.221-13.317-16.319v19.54h-10.341v-35.591" fill="#231f20"/><path d="M172.183 177.142v-8.95h18.812v44.037h-18.79l-.031-5.93-4.88-5.979v11.909h-18.786v-44.037h16.53l7.145 8.95" fill="#fff" fill-rule="evenodd"/><path d="M152.73 172.415h10.275l13.4 16.784v-16.784h10.366v35.591h-10.366l-.016-3.221-13.318-16.319v19.54h-10.34v-35.591" fill="#231f20"/><path d="M188.524 195.14l-12.313 6.344-2.223-1.764 14.536-4.58zm-31.484 4.669c.359-.171 14.345-3.03 16.605-3.555 5.22-1.211 13.829-5.069 16.384-5.409-6.583 6.821-29 7.791-32.903 10.705l9.728-.536c-6.909 3.29-21.455-.403-29.318.644-4.325-1.768-10.16-2.56-15.335-3.85-2.068-.514-12.008-5.22-15.94-6.827l.309-.575c15.46 6.318 41.131 14.308 50.47 9.403" fill="#fff" fill-rule="evenodd"/><path d="M46.986 88.142c.093.507.323.983.699 1.413h1.12v-.784l.429.155-.269.629 13.908.16c.483.176.86.484 1.127.92l.292 1.105.56-.475.43.629-.721 1.105c.03.352.168.667.43.943l-.139.468.138 1.396.292-.315a5.71 5.71 0 0 1 .268-1.549h1.98l-.139.153H65.55l.56 1.55c.269.33.598.645.99.944a3.858 3.858 0 0 1-.269 1.258c.046.483.23.95.56 1.42l.698 1.234c.077.421.215.79.43 1.104.115.046.207.146.268.315l-.268-.315v.467l.398.477-.56.628c.223.332.507.645.852.944.292.345.576.753.86 1.235l.267.944-.268.315.4.475a1.38 1.38 0 0 1 .567-.636l.422.79-.56.313-.43.944.3.315 2.516.291h-1.688c.03.254.13.468.292.63l.429 3.773c0 .346.084.706.268 1.082v-2.653l-.268-1.259h.56c.253.467.445.99.56 1.572v4.227l-.153 1.105.153.315.138 6.558-1.55.475c-.314.132-.598.392-.836.783a4.97 4.97 0 0 1 1.258.629l-1.12.79-4.495.153.56.315h1.956c.392 0 .721.047.99.138H49.524c-.253.107-.444.261-.56.469-.03.56-.13 1.135-.291 1.733l-.43-.315.56-.16v-1.412c-.015-.139-.1-.238-.268-.315a2.735 2.735 0 0 0-1.411.469l-.139 1.58v-2.049H42.63l-1.258-.138h6.175l-1.549-.315h-3.774c-.499-.068-.967-.283-1.42-.628l-1.12-.944v-4.226c.238-.445.614-.76 1.12-.944l-.13-1.888a1.589 1.589 0 0 1-.99-.443h1.12v-1.42a4.86 4.86 0 0 0-1.12-.783v-5.331h.99a3.159 3.159 0 0 0-.99-.629l.56-.315.56-.152v-.768l-.268-.154c-.268-.015-.552-.122-.851-.315h.851l-.851-.474.851-.316-1.143-.152 1.412-.315v-.636h-1.258l.698-.154-.56-.161v-5.476h.851l.269-1.712c-.36-.191-.69-.46-.99-.79.56-.015.89-.33.99-.944-.016-.597-.292-.966-.829-1.097a9.29 9.29 0 0 1-.291-1.864V92.21a6.212 6.212 0 0 1 .56-1.574l1.127.791.56-.791.13.791.568-1.396.714-.475.268.475.722.315.406-.63 2.247-.16v-1.413zm-3.505.63h3.076l-2.224.314h-3.1l2.248-.315zm8 0h9.574l.43.314-9.712-.16-.292-.155zm13.64 1.097c.23.2.414.452.56.766a.699.699 0 0 1-.269.476 4.462 4.462 0 0 1-.291-1.242zm-2.517 1.711c.169.237.4.399.698.475l.292-.475h-.99zm-12.81.79l2.117.152h2.961l-2.11-.152h-2.968zm9.711 0l1.258.152h1.412l-1.258-.152h-1.412zm5.616.781c.314.017.598.178.859.476a1.55 1.55 0 0 1-.86-.476zm-10.67 1.105c-.185.43-.47.844-.86 1.235h-3.659l1.28.469v.79l.561-.476h8.852l-.698-.783h-1.12v-.766l-1.55-.315c-.253.223-.444.538-.56.921-.62-.552-1.364-.913-2.247-1.075zm-7.602.154c-.146.583-.522.944-1.12 1.081a5.475 5.475 0 0 0-.699 1.259l.138 2.04-.138.476.138 1.396-.138 1.097.138.313-.138 2.34.269 1.888 1.396.154h-1.527v.636l.13.154a5.116 5.116 0 0 0 1.55-.315l-.153-1.419.154-.469V94.41zm1.127 0v2.494h.828V94.41h-.828zm1.818 0l.138.475v-.475h-.138zm0 1.55v.629l.138.161v-.63l-.138-.16zm10.831.629l-7.165.161c-.498 0-.912.052-1.257.154h7.164c.484 0 .898-.102 1.258-.315zm-10.54.161l.699.154.29-.154h-.989zm2.118.629l2.378.153h7.594l-2.378-.153h-7.594zm0 .628c.49.392 1.097.6 1.818.63h6.896c-.491-.407-1.105-.615-1.84-.63h-6.874zm-2.41.154l.292.475c-.045-.206-.138-.367-.291-.475zm-1.817.79c.191.284.468.491.828.629-.176-.299-.452-.506-.828-.629zm3.797 0c-.376.468-.56 1.089-.56 1.864a4.084 4.084 0 0 1-1.28.315v-.944l-.14-1.081v5.776c.331.483.806.798 1.42.944v1.419l.698.161 4.357-.161 1.258.161h-5.323l5.615.152c-.138.14-.322.24-.56.315h-4.365l-1.68.475v2.494l-1.28.315c0-.944-.047-1.626-.14-2.049v7.848l.292-1.258h1.128v3.59l17.306.16-.721-.313c-.484 0-.944-.108-1.397-.315h2.248l.43-1.549-.162-1.259.162-.475-.99-1.411a5.789 5.789 0 0 1-.698-1.396 4.228 4.228 0 0 0-.43-.944l.277-1.572-1.128-.63h.56l.161-.475-.161-1.074v-.476l-.4-1.887c-.229.108-.42.262-.59.468l-.56 1.266a12.622 12.622 0 0 1-.406-2.049 2.687 2.687 0 0 0-.851-1.081 7.106 7.106 0 0 1-.56-1.726h2.11l-.292-.161a7.909 7.909 0 0 1-1.956-.315l-.56-.782.429-.476c-.03-.552-.314-.912-.86-1.074l.139 1.074-.698.315v-2.025l-9.842-.154zm15.756-.161l2.807.315h-2.385a.644.644 0 0 1-.422-.315zm-5.776.315v.314h.13v-.314h-.13zm-10.272.161h10.003v1.081H51.481v-1.08zm-3.505 2.339c.253.222.53.376.828.467a1.957 1.957 0 0 0-.828-.467zm1.956 1.572h1.28a2.277 2.277 0 0 1-.988.47c-.139-.1-.23-.262-.292-.47zm11.82 0h1.121a1.936 1.936 0 0 1-.829.47l-.291-.47zm-13.776.944v2.179c.015.599.292.966.828 1.105v-2.21c0-.598-.276-.959-.828-1.074zm15.756.291l.829 1.727c0 .66-.092 1.342-.27 2.048l-.137-2.362c-.238-.369-.383-.845-.422-1.413zm-13.938 1.26v1.418l.138-1.105-.138-.314zm1.687.628h5.639l.56.154H52.04l-.56-.154zm15.35 1.105l1.12.152.277-.152H66.83zm-21.663.468c0 .628.092 1.25.292 1.863.414.015.828.123 1.235.315h-.56c-.56.047-.882.414-.967 1.105l-.138.783.138.314v.79l-.138 1.234.138.316v4.226h.56c.315.015.637.115.967.315h-.836l.138.313c.537-.152.82-.56.852-1.233l-.154-.792.154-.313v-4.542h-.154l.154-.467v-2.203l-.154-1.08.154-.783-1.68-.162zm4.626 0v.943c.268-.222.599-.384.99-.469l-.99-.474zm-1.818.314v1.397h.828v-1.397h-.828zm24.34 0c.268.062.498.216.698.476-.276-.047-.506-.208-.698-.476zm-2.54.92c.055.798.346 1.428.852 1.888l.269-1.887h-1.12zm-18.295.63h5.485l.422.314h-5.477c-.168-.031-.307-.13-.43-.315zm14.63.476l.29.467c-.13-.085-.23-.245-.29-.468zm-18.135 1.41c.253.23.53.384.828.477a2.03 2.03 0 0 0-.828-.476zm1.956 1.573h1.28c-.268.215-.597.369-.988.475-.139-.106-.23-.26-.292-.475zm-1.956.929v5.322h.828v-5.322h-.828zm19.822.314l.56 1.258c-.269-.3-.453-.72-.56-1.258zm4.518 2.201c.03.207.115.361.268.469a.663.663 0 0 0-.268-.469zm-22.522.944v1.863h1.28c-.774-.237-1.203-.858-1.28-1.863zm1.687 1.235h9.574a.797.797 0 0 1 .43.315H51.91c-.168-.031-.307-.139-.43-.315zm12.113 0a.702.702 0 0 1 .406.315c-.168-.031-.298-.139-.406-.315zm8.722.315v5.17c.03.131.115.237.268.313v-5.17c-.015-.137-.107-.237-.268-.313zm-27.148.628v.783h1.527l-.56.161h-.967v.783h.967c.268.198.506.46.714.79v-2.517h-1.68zm4.626 0v2.517l.138-.629 4.227-.161c-.015.482-.161.951-.43 1.418h-2.945a2.903 2.903 0 0 1-.99-.475l-1.12.162c.629.206 1.19.675 1.68 1.395h4.518c.03-.407.17-.767.407-1.082h.99v-1.418c.19.076.336.237.429.475.1.66.338 1.227.69 1.711.545-.438 1.013-1.005 1.42-1.711.751-.299 1.587-.46 2.516-.475h7.463c-.015.482-.16.951-.43 1.418h-8.852v1.082h9.574v-1.082h-.162v-2.2l-2.807-.162h2.969a1.422 1.422 0 0 0-.292-.783h-8.86c-.207.077-.345.23-.422.47H55.28c-.721-.3-1.558-.455-2.516-.47h-2.97zm.138.63h1.28v.782h-1.28v-.783zm1.55.153h9.711l.291.161h-9.71l-.293-.161zm-3.506 1.105c.253.206.53.367.828.467a2.025 2.025 0 0 0-.828-.467zm-1.281.782l-1.527.767v.79h1.389c.2-.499.483-.958.86-1.395l-.722-.162zm-5.891 2.5v1.26l.567-.63-.567-.63zm32.479.154l.153 1.105h-.721c.215-.299.399-.667.568-1.105zm-3.215 1.573l.699.475c-.2-.222-.43-.383-.699-.475zm-20.404.628c.069.14.214.247.421.315-.076-.16-.214-.268-.421-.315zm2.539 0c.66.2 1.403.3 2.247.315h7.725c-.668-.207-1.42-.315-2.248-.315h-7.724zm12.089 0c.077.14.215.247.422.315-.069-.16-.215-.268-.422-.315zm-22.92.607h5.054l.423.161h-5.056l-.422-.161zm10.11 0h9.711l.291.161h-9.71l-.293-.161zm14.628 0h4.657l.268.161h-4.634l-.29-.161" fill="#fff"/><path d="M81.451 87.981c.675.017 1.35.17 2.025.454a6.692 6.692 0 0 1-2.025-.454zm4.358 0c.214.078.36.23.452.454a.758.758 0 0 1-.452-.454zm2.792 0h10.9l.153.454h-10.9l-.153-.454zm13.393 0c.207.078.36.23.445.454a.747.747 0 0 1-.445-.454zm2.785 0h2.025c.522 0 1.043.108 1.572.315l-1.864.139c-.56 0-1.135-.154-1.733-.454zm-20.543 1.535c.798.023 1.733.176 2.815.445a11.57 11.57 0 0 1 2.309-.445c.015.206.123.406.315.606h10.14l.606-.16a11.586 11.586 0 0 1 2.332-.446c.016.206.123.406.315.606.737-.39 1.573-.598 2.5-.606v.606h2.808l.315.444.153.608-.153.313-.315-.76a3.725 3.725 0 0 0-.943.447l.782 1.08-.629.607c-.913.221-1.948.375-3.1.453h-6.404l-.606.152h7.303c.69.015 1.32.169 1.887.453-1.051.192-2.194.3-3.437.315h-13.87c-.206.03-.36.122-.444.291v1.074h2.493c-.82.077-1.657.376-2.493.905v2.601l.154.614h10.585l-.467.154H89.069l-.315.45v1.973h2.792v.766h-1.71l-1.082.162v1.503h3.575l.16-.606 2.647.315 2.025-.315c.193.238.46.438.783.606l5.6.154H90.932l.314.16a7.157 7.157 0 0 0-2.332.768h2.179c.176.023.33.123.452.291l-2.63.154h11.505l.154.606-.154 2.14-.767.606v1.365l-9.036.161c-.552 0-1.12.147-1.703.445l4.963.162 1.258-.162.476.162h1.074l.628.153c-.145.813-.62 1.42-1.41 1.827l-.139-.768c-.414.499-.997.751-1.726.768l-2.792.152-.153 3.191.153.607-.153 3.352.452 1.686-2.477.293c-.73-.284-1.566-.438-2.493-.453l-.154.453h-2.5v1.074h2.814v-1.366h2.018v1.05l1.55.316c.015-.476.122-.936.314-1.366.215.398.368.86.476 1.366.422 0 .828-.146 1.235-.445.797-.438 1.365-1.105 1.71-2.003.192.807.56 1.627 1.097 2.448V123h1.55v-.897c.943-.308 2.04-.46 3.283-.477h7.302c.23.423.384.875.476 1.374h-10.27v1.074h11.053V123c.046.928.514 1.541 1.396 1.841-.806.045-1.534.345-2.179.898a6.601 6.601 0 0 1 1.55.766l-.921.468c-.843.062-1.726.26-2.654.607l-.468.138H79.718l3.597-.138-1.411-.315h-2.34l-.452-.154v-.606c.076-.269.23-.529.452-.766l-.452-1.504v-10.364c-.146.015-.254.115-.315.292 0 .736-.1 1.503-.314 2.293v-2.737l-1.235.152-.468-.152c-.69-.438-1.113-1.098-1.259-1.98h.63l1.235-.161.468.16h.629l-.154-.605-5.914-.162h3.26l.475-.606-.475-.152h-4.986l.314-1.98 1.412.606 1.235-1.979a5.583 5.583 0 0 1 2.186-.606h2.647v-.92l.629.92-.154-1.373-1.572.16-1.711-.16a5.88 5.88 0 0 1 1.71-.76l1.573.607.154-1.213v-3.505l-6.536-.137.445-.154h6.09V93.02l.453-1.242c.207 1.02.315 2.14.315 3.352l1.104.315v-1.98l.315-3.343h2.938v-.607zm26.004 1.211a.906.906 0 0 1 .315.607l-.315-.607zm-31.757.922l.314 2.585v2.738l-.314-5.323zm5.438 1.665l2.34.152h.475l-2.34-.152h-.475zm4.833 0l1.396.152h2.179l-1.396-.152h-2.18zm-4.833.92l-.13 1.212 2.018.153-1.888.452-.13 1.688.13.445v1.22l-.13.469.13 1.057v1.051c.093.154.253.262.476.315h2.179l.16.766V95.6l-.314-1.365-2.025.154-.476-.154zm4.365.759v5.17l.468.16v-5.192l-.468-.138zm5.592.606c.2.031.353.13.476.3-.185-.031-.338-.131-.476-.3zm2.808 0h6.857c.63 0 1.305.1 2.026.3H98.71c-.629 0-1.304-.1-2.025-.3zm-10.264.905l.154 2.601v2.746l-.154-5.347zm-2.025.154l.153 2.585v2.608l-.153-5.193zm-4.518.767a2.9 2.9 0 0 0 1.104.445 2.918 2.918 0 0 0-1.104-.445zm-1.396 1.526c.138.093.245.238.314.453-.146-.092-.253-.245-.314-.453zm1.396.922v4.248h1.104v-4.248H79.88zm8.407 2.423c.069.199.23.299.468.299l-.468-.299zm-10.586 0c.238.199.4.453.468.767a1.452 1.452 0 0 1-.468-.767zm16.178 0c.238.199.399.453.476.767a1.622 1.622 0 0 1-.476-.767zm2.808 0h8.407l-.153.614-8.254.153v-.767zm-7.932.453v.314h.161v-.314h-.161zm-4.833.314v1.665h2.815l-.16-1.665H83.92zm-4.042 1.818l.79.314c.13-.022.238-.13.314-.314H79.88zm5.93 0l.927.453a2.658 2.658 0 0 0-.927-.453zm2.477 0c.016.468.17.928.468 1.373-.015-.46-.169-.92-.468-1.373zm15.572-.153c.407.046.813.2 1.235.467l-.76.139H97l1.71-.293h6.069l-.921-.313zm-26.158.313l.468.154-.468.139v-.293zm16.178 0l.476.154-.476.139v-.293zm-9.957.293c.767.284 1.65.445 2.655.475-.752-.291-1.635-.445-2.655-.475zm-6.22.475a.653.653 0 0 1 .467.291.77.77 0 0 1-.468-.291zm16.177 0c.2.023.353.124.476.291-.185-.03-.338-.13-.476-.291zm2.808 0h6.543l1.71.154-6.381.137a6.36 6.36 0 0 1-1.872-.291zm-23.504 2.132l1.42.131h4.51l-1.412-.13h-4.518zm17.912 0l2.178.131h7.15l-2.179-.13h-7.15zm6.382 2.271v.76a3.635 3.635 0 0 0 1.082-.446l-1.082-.313zm-17.597.76v.767l1.104-.162a3.246 3.246 0 0 0-1.104-.606zm4.042 0c.061.26.223.46.476.606-.046-.253-.207-.453-.476-.607zm.63 0a4.751 4.751 0 0 0 1.871.452 11.049 11.049 0 0 0-1.872-.453zm-5.754.16a.7.7 0 0 0 .315.445.666.666 0 0 0-.315-.445zm-.153.607c.03.137.13.237.314.315-.03-.139-.138-.238-.314-.315zm5.277 0l2.34.315.475-.162-2.34-.153h-.475zm4.833 0l1.71.315h1.865l-1.71-.315h-1.865zm6.068 0c.03.137.138.237.314.315-.03-.139-.13-.238-.314-.315zm-10.9 1.058l2.339.154h.475l-2.34-.153h-.475zm4.832 0l1.235.154.315-.153h-1.55zm2.34 0l.92.154.315-.153h-1.235zm-11.215.922v1.211h1.104c0-.645-.368-1.051-1.104-1.211zm4.042.152l-.13 1.059 1.074.154c.56 0 1.127.152 1.71.452h-.606a5.315 5.315 0 0 0-2.048.475l-.13 1.213.13.445v.475l-.13 1.665.13.445v1.372h2.655l.16.768v-4.564l-.16.154v2.431l-.154-.767v-2.424l.154-1.213v1.213l.16-1.213c-.03-.69-.138-1.403-.314-2.14h-2.5zm4.994 0v1.213h1.235a.814.814 0 0 1-.475.452h-.76v3.667h1.235l-.63.153c-.498.66-.75 1.473-.766 2.432l1.396-.162.154.768v-3.959l-.154-.766.154-.293-.154-3.505h-1.235zm-.629.607v5.17l.468.16v-5.17l-.468-.16zm-10.586.606a.74.74 0 0 1 .468.452.8.8 0 0 1-.468-.452zm13.547 0c.138.091.238.245.3.452-.139-.092-.238-.237-.3-.452zm2.631 0c.223.076.384.23.476.452a.812.812 0 0 1-.476-.452zm-9.481 1.059l.153 2.607v2.585l-.153-5.192zm-4.518.766c.191.237.46.399.79.467.145-.083.253-.245.314-.467H79.88zm-1.396 1.526c.138.093.245.239.314.453-.146-.092-.253-.245-.314-.453zm1.396.921v5.324h1.104v-5.324H79.88zm11.368-.153h6.382l2.025.153h-6.382l-2.025-.153zm13.532 0h2.178l2.025.153h-2.178l-2.025-.153zm-26.296 1.68l.314 2.585v2.746l-.314-5.331zm9.803.905c.069.19.23.298.468.315l-.468-.315zm23.504 1.68l.476.29-.162 1.22-.314-1.51zm-1.703 1.826c-.03.299-.138.606-.322.92l.322-.92zm-30.208 1.365c.191.246.46.391.79.452.145-.091.253-.237.314-.452H79.88zm6.697.606c.091.154.245.261.475.315-.092-.146-.253-.254-.475-.315zm2.784 0c.752.199 1.58.299 2.5.315h8.561c-.736-.192-1.556-.3-2.477-.315H89.36zm13.393 0c.092.154.254.261.476.315-.092-.146-.246-.254-.476-.315zm-23.19.605h3.438l.475.163H80.04l-.476-.163zm9.038 0H99.34l.314.163H88.915l-.314-.163zm16.178 0h2.492l.315.163h-2.493l-.314-.163" fill="#fff"/><path d="M117.013 87.582a5.068 5.068 0 0 1 2.002.47 7.201 7.201 0 0 1-2.002-.47zm4.32 0c.206.07.36.23.444.47a.812.812 0 0 1-.445-.47zm2.76 0h10.762l.163.47h-10.764l-.16-.47zm13.24 0c.207.07.36.23.446.47a.81.81 0 0 1-.445-.47zm2.762 0h2.003c.506 0 1.02.1 1.526.315l-1.841.154c-.545 0-1.105-.154-1.688-.469zm-18.004.315c.215.147.361.345.453.607l-.453-.607zm-2.285.154c.49.598 1.203.95 2.132 1.058l.76-.292.927.292.154-.92c.345.521.759 1.036 1.235 1.55h9.236l2.455-.63h1.388l.16.63c.147-.093.246-.247.292-.477l2.318-.153.152.63h2.448l.475.152v1.083l-.314-.629-.921.314a4 4 0 0 0 .63 1.373c-.66.43-1.435.744-2.318.943l-8.154.131h9.075l.314.315a9.754 9.754 0 0 1-2.47.475h-15.395l.629.445 2.002.16h-1.08l.16.315h7.84l1.082.453h5.238c.223.022.368.13.445.315h-6.16l-2.6-.315h-6.16l-2.317.63 2.946.13-1.864.161c-.283.714-.437 1.541-.453 2.47v.759h7.372l.476.161h-7.848v1.841l-.766.315c.56.138 1.173.238 1.848.291l-.475.477h-1.373c.03.375.183.736.452 1.072.33.261.744.461 1.235.614l1.841.154h-2.915l-.613-.154.137.469 2.316.291 6.161.161-.476.629.629 1.074c-.598.545-1.373.851-2.316.92l-4.918.138h6.153c.138.015.245.123.315.315l.613.768h-1.535c-.682.267-1.51.475-2.47.629l2.318.291.605.154a5.777 5.777 0 0 1-1.688.766h-5.078c-.046.237-.199.452-.468.629l-.298-1.549.137 2.47-.137.452v1.074c.045.768.306 1.534.766 2.316v5.08h-.629v-.63l-.137.943.137.606-.137.315h-1.865l-.291-.469.161-2.316-.161-5.369.161-.476-.161-1.68.161-.614v-1.702l-.79-.139v.768l-1.051 1.687c.3.599.498 1.159.606 1.68h-.606l-.161.476.16 1.074v.453h1.052v5.077a3.688 3.688 0 0 0-1.373 1.55c-.683 0-1.297.047-1.841.139h2.163c0 .221.1.436.315.629l-.476 1.081c.03.744.437 1.304 1.212 1.68-.077.582-.422.942-1.051 1.081l-.161-.92a.808.808 0 0 0-.315-.476l.315-.92h-1.082c-.476.199-.836.506-1.074.92l1.235.79-2.002.76-1.388-.154c-.108-.03-.207-.139-.3-.315l.162-.92.452-.314-.314-.453-.3-2.317v-11.997h-6.152a.712.712 0 0 1-.475-.291c.33-.499.798-.753 1.396-.768l-.606-.152-.315-.315.154-2.455c.153-.774.606-1.343 1.373-1.703l1.396-.161h2.6v-1.688l-2.761.162.315-.477-1.396-.29.475-.63.767-.76 1.388-.16.453.16h.606l.782-.16a3.078 3.078 0 0 0-.468-1.527h-4.924l-1.235-.161h6.16c.284-.744.444-1.612.467-2.6v-3.084c.047-.69.2-1.35.453-1.995l.314 1.366v1.549c.3.215.66.361 1.082.454v-1.374l.315-3.996h2.923l-.162-1.235.162-.453zm-5.716 3.214l.315 2.631v2.761l-.315-5.392zm9.237 1.71l2.14.131h2.316l-2.163-.131h-2.293zm-2.785.921l-1.051.445h1.68c-.13-.222-.345-.369-.63-.445zm11.552.445h2.002l.445.16h-1.995l-.452-.16zm-12.603.928v.76h1.68l-1.68-.76zm2.286.315v2.447l.16 2.001V97.58l-.16-1.995zm1.081 0a16.608 16.608 0 0 0-.16 2.447c0 .675.16 1.343.475 2.001V97.58c0-.63-.108-1.298-.315-1.995zm-2.316.606v5.392c.23-.016.437-.123.629-.315l.161-1.235-.161-.29V96.19h-.63zm11.552-.161h2.002l.445.161h-1.995l-.452-.161zm-16.608 1.081c.3.207.66.369 1.082.469-.299-.208-.66-.369-1.082-.469zm-1.396 1.55c.154.091.261.237.315.445-.13-.085-.238-.238-.315-.445zm1.396.92v1.687l1.082-.16V99.58h-1.082zm3.844 0l.16.452v-.452h-.16zm3.997 1.082l.137.444v-.444h-.137zm-3.836 1.074c.537.138 1.15.238 1.841.291-.56-.13-1.174-.23-1.841-.29zm0 .768c.084.582.437 1.042 1.05 1.372l-1.05.314h.759c.599-.199.959-.651 1.082-1.373a10.545 10.545 0 0 0-1.841-.313zm-5.4.152c.092.138.252.239.475.291-.092-.145-.246-.245-.476-.29zm1.395.606v1.688h1.082l-.16-1.688h-.922zm-1.08.162c0 .491.107 1.005.313 1.526v-1.211c-.023-.139-.13-.239-.314-.315zm6.926.766l-1.841.154-.161.606h1.84l.162-.76zm.445.315l.16.445v-.445h-.16zm.92 0c.077.207.238.352.476.445a.724.724 0 0 0-.476-.445zm8.162 2.447c.046.208.146.368.315.468a.728.728 0 0 0-.315-.468zm-23.841.63l.315.452-.162 1.388-.314-.467.16-1.374zm1.864.152l1.366.138h4.471l-1.388-.138h-4.45zm15.978 1.85l2.309.152h.454l-2.294-.152h-.469zm-9.374.152v5.055h1.082v-5.055h-1.082zm-1.396 1.213l.315 2.631v2.769l-.315-5.4zm7.687.927l.16.469v-.469h-.16zm1.081 0c.031.193.139.346.315.469a.711.711 0 0 0-.315-.469zm.606 1.55c.238.031.453.176.63.445-.239-.03-.446-.176-.63-.445zm-1.687.921v4.917l.16.452v-5.369h-.16zm.92 0v5.232l.476.137V114.5l-.476-.153zm-7.21 2.447c.176.237.437.398.766.476.146-.093.254-.254.315-.476h-1.082zm-1.397 1.55c.154.091.261.245.315.452-.13-.092-.238-.239-.315-.452zm1.396.92v5.377h1.082v-5.377h-1.082zm3.844 0l.16.452v-.452h-.16zm-5.24 1.535l.315 2.622v2.77l-.315-5.392zm7.687.92l.16.467v-.467h-.16zm1.081 0c.031.191.139.352.315.467a.708.708 0 0 0-.315-.467zm-1.526.921h1.995l.137 3.075h.63l-.154.79a4.76 4.76 0 0 1-.767-1.396l-.476.767c-.13.445-.383.859-.76 1.235l-.16-2.922v2.922c-.384-.345-.59-.812-.606-1.396l.161-3.075zm2.132.629c.238.03.453.176.63.445-.239-.024-.446-.177-.63-.445zm-1.373 1.84c.046.315.2.568.453.767a1.034 1.034 0 0 0-.453-.767zm-6.605 1.526c.177.246.438.4.767.476.146-.091.254-.246.315-.476h-1.082zm7.526-.13c-.054.222-.215.422-.468.606l.468-.606zm-7.679 1.365h1.389l-1.074.162-.315-.162zM147.504 89.109h4.357l1.06.153-1.85.14.522.153h1.865l.383-.154h.4l1.057-.292c.077.177.215.33.407.446l.384-.154 2.515-.292h7.011l1.059.153-1.871.14.545.153h1.84l.407-.154h.384l1.074-.292c.076.177.206.33.383.446l.407-.154 2.516-.292 1.702.153h-.92l.652.453a4.312 4.312 0 0 1-.377 1.059l.377.445c-.069.706-.468 1.158-1.19 1.35l.813.153c-.09.215-.276.414-.543.614-.315.683-.484 1.489-.514 2.401l.107.898-.107.291v.475l-.545.131h.545v4.388l-.675.291a2.545 2.545 0 0 1-1.059-.291c.345-.03.651-.184.92-.453h-.92a8.2 8.2 0 0 1 .268-1.978h.652V97.24a10.388 10.388 0 0 0-1.971-.444H152.13l.138 1.503-.138 20.021.138 1.059v.767h17.705c.42-.499.943-.951 1.572-1.374v-1.956l.269-.897.545-.16.107.16v2.11c.015.675.153 1.481.407 2.408a3.639 3.639 0 0 1-.653 1.052h-7.417l.545.161h7.395l-.14.452-.383 2.563.246 1.341c-.268.078-.53.23-.782.453l-.139-.453v-2.852h-.13a9.465 9.465 0 0 0-2.117-.76l-6.467-.162v.162l-1.327-.162-7.931.162-1.305.153h8.177l.269 1.06.79.604.131-1.211v1.211l6.09.139v.897l-.269 1.052-1.457-.132-8.046.132 1.978.452h5.417l1.326.161h-6.743c-.767.16-1.603.268-2.516.314h-9.642l-1.06.13-2.247-.444 2.9-.453h5.953l-8.714-.292-.522.132v-.584l.115-1.504h1.327l-1.84-.16c-.154-.016-.246-.116-.277-.315h2.117v-1.342h-1.979l-.536-.744h3.704l-.383-.161h-2.646l.513-.898 1.327-.154h-1.059l1.06-.452v-1.665h-1.197l1.196-.154v-4.656h-1.196l1.196-.314V94.68l.399-1.213-.269-.445-.13-.614a2.39 2.39 0 0 1 .806-.897 6.318 6.318 0 0 1 .92-1.504l1.85-.605h-2.77l1.173-.292zm10.449.292l1.166.154h1.326l-1.189-.154h-1.303zm-5.823 3.168l1.979.153h6.336l-1.979-.153h-6.336zm12.673 0l2.002.153h3.82l-1.98-.153h-3.842zm-15.595 1.503a.9.9 0 0 0 .406.607c-.03-.254-.169-.453-.406-.607zm1.196 0c.637.23 1.305.377 1.995.453h7.264l-9.397.154.943.161 18.634-.161h-4.903l.806-.154h4.472l.276.154c.369-.017.721-.162 1.051-.445l-19.031-.161-1.059.16-.246-.16h-.805zm-.79 1.06v.767h1.841v-.768h-1.841zm2.516 0v.767h1.443v-.768h-1.443zm3.436 0c.032.314.162.567.384.767-.031-.315-.154-.577-.384-.768zm2.387 0v.767h9.373v-.768h-9.373zm11.345 0c.046.314.183.567.407.767a1.062 1.062 0 0 0-.407-.768zm-20.09 1.664a3.415 3.415 0 0 0 1.196 1.503c-.438.315-.835.767-1.196 1.35v2.855c.015.582.153 1.08.406 1.502v-3.46h.79v4.228c-.123.675-.475 1.174-1.059 1.504.078.567.346 1.073.806 1.503l-.943 1.219v4.803l.406.16v-2.716c.015-.575.276-.927.79-1.058v3.168h.537c-.237.33-.422.737-.537 1.212a4.048 4.048 0 0 1-1.196 1.503 2.329 2.329 0 0 0 1.196 1.35l-.79.744h.921l-.921.154a.71.71 0 0 0-.406.315v1.641h.137l.538-.445 1.188.445.384-2.247-.13-1.365.13-.453-.13-19.415-1.711.13-.406-.13zm21.417 5.569h1.595c-.076.23-.207.429-.406.605l-1.189.454v-1.059zm.138 1.956l.92.16a2.25 2.25 0 0 1-.92.446l-.138-.446.138-.16zm.652 4.226h1.051l-.782.14-.269-.14zm-19.147 4.81h5.685l1.84.153h-5.684l-1.841-.153zm11.883 0h8.453l.406.153h-8.452l-.407-.153zm7.663 1.957a.96.96 0 0 1 .652.313c-.238 0-.453-.107-.652-.313zm-.783.313h.27l-.132.292-.138-.292zm-13.753 2.54h9.12l.276.153h-9.128l-.268-.154zm-5.148 2.27l1.979.154h6.336l-1.979-.154h-6.336zm12.673 0l2.002.154h3.958l-1.98-.154h-3.98zm-13.732 1.052l2.248.161h7.126l-2.247-.161h-7.127zm-1.863.743c.092.154.23.254.406.315a.644.644 0 0 0-.406-.315zm1.733 0l-.537.315h.921l-.384-.315zm10.832 1.504l.406.315c-.169-.038-.299-.146-.406-.315zm2.378 0h6.205c.108.031.193.139.27.315h-6.2c-.107-.016-.2-.116-.275-.315zm4.364.614c.376.176.683.475.921.897a2.65 2.65 0 0 1 .782-.582l1.082-.161c-.077.391-.254.69-.537.897l-.652.898-.406-.898-.784.605a7.282 7.282 0 0 1-.406-1.656zm-22.452 4.196h5.392c.438.015.875.123 1.328.314h-5.417l-1.035.161-.268-.475zm8.828 0c.17.045.3.153.407.314a.67.67 0 0 1-.407-.314zm2.387 0c.406.015.843.123 1.326.314-.421 0-.859-.1-1.326-.314M179.63 88.189h6.336l-.16.606-3.392.152c-.896-.045-1.825-.298-2.784-.758zm8.653 0c.222.146.376.352.468.606l-.468.152v-.758zm2.785 0h10.97l-.162.606-10.808.152v-.758zm13.277 0c.23.146.384.352.476.606l-.476.152v-.758zm2.793 0h2.623l-.467.606a13.57 13.57 0 0 0-2.156.314v-.92zm-20.413 1.073h2.34c0 .33.154.637.453.922v-.922c.728 0 1.503.108 2.31.315.888.392 1.871.592 2.945.607h7.103c.752-.43 1.627-.737 2.632-.922l1.072.922c.063-.354.27-.668.614-.922.897.185 1.772.492 2.624.922l.943.161a7.216 7.216 0 0 0-.153 1.549l-.314 1.081.154 1.841-.154.469.154 1.081v1.081l-.154.468.154 6.629-.154 1.105.154.451v1.075l-.154.629.154 2.922-.154 2.179.154.452h-4.335a20.253 20.253 0 0 1-.453-2.63c.2-1.006.291-2.08.291-3.238 0-1.035-.09-2.109-.29-3.238l.29-1.387-.29-1.55c.2-.974.29-2.678.29-5.102l-1.365.154c-.89-.284-1.917-.437-3.106-.452l-10.334.298-1.08-.298a9.288 9.288 0 0 1-1.865.298l-.767-.298v12.181l.161.476-.161.153v4.633h-2.018V109.2l-.137-.79.137-.154V95.285c-.245-.553-.697-.86-1.372-.921v1.082l-.315 3.236.315 1.074c-.154.031-.254.139-.315.315v1.558c.192.997.3 2.078.315 3.228a25.896 25.896 0 0 1-.315 3.238c.046.467.146.929.315 1.396l-.315.475h1.081c-.69.223-1.05.738-1.081 1.55.192 1.005.3 2.079.315 3.238h1.235l-1.235.467h.605l1.55-1.711c.799.154 1.305.721 1.526 1.711l5.263.139.468-.139h.453l.629.139 2.63-.139 1.236.139.291-.139 3.866.139.477-.139.443.139 1.105-.139h.922l.443-.152h-3.55a9.294 9.294 0 0 1-2.31-.315h4.625c.645-.514 1.428-.929 2.34-1.244h2.762c.23.016.437.124.63.315.06.437.26.851.605 1.244a1.388 1.388 0 0 0-.76.605 2.709 2.709 0 0 0-.63.921l.63.629-.314.467-.92.453c.207.207.367.468.467.782-.675.484-1.45.736-2.332.768-.781.207-1.289.775-1.534 1.687l-.315-1.372h-1.864c-.443.897-1.165 1.357-2.155 1.372h-9.258v-1.372l-.315 1.687H209.9c-.782.283-1.65.438-2.609.468h-7.126l9.735.161c.223.207.383.46.468.759l-9.413.161 1.083.154h8.33c-.208.498-.514 1.012-.92 1.557.215.299.413.659.605 1.074l-1.527.452h-2.017l-.453-.16-.476.16v-.29l-2.309.29-.475-.16a17.16 17.16 0 0 0-3.237-.292h-7.103l-1.075.452c-.628 0-1.25-.1-1.863-.29l-2.317.29-.476-.16c-.897-.193-1.925-.292-3.076-.292h-3.551c-.63 0-1.297-.1-2.003-.315h8.5l-1.396-.153h-7.571c.077-.253.23-.515.467-.767l.608-.315-.608-1.71c.53-.599 1.244-.905 2.164-.921l.445.315a8.79 8.79 0 0 1 2.179-.315l3.397-.153.154-1.396c-.084-.131-.245-.231-.468-.291v.92c-.943.298-2.025.452-3.237.452h-3.551l-1.235-.291.92-1.081-.92-.315-.162-1.235.162-.475v-2.157l.152-.315-.152-.152.152-.291-.152-.477c.13-.452.39-.858.76-1.235-.285-.046-.484-.246-.608-.606l-.152-6.651.152-.451-.152-2.179.152-.453-.152-4.626.152-.476a6.02 6.02 0 0 1-.152-1.235l.152-1.395-.152-1.55.152-1.68-.152-.475a.826.826 0 0 1 .29-.454c.377-.176.69-.436.945-.781l-1.083-.161h8.63v-.921zm-.291 4.182c.56.138 1.174.23 1.849.291h6.49c-.553-.13-1.174-.23-1.864-.291h-6.475zm10.655 0c.092.138.246.23.476.291-.092-.146-.254-.245-.476-.291zm2.785 0l2.316.291h2.47l-2.309-.291h-2.477zm-18.065.605c0 .545.091 1.112.291 1.711v-1.396c-.015-.13-.115-.238-.291-.315zm12.204 0l-2.025.315h-4.158c-.452.03-.859.238-1.235.606h6.314l1.104.161h-7.288l.944.315 16.676-.161-5.1-.315h4.18c.453-.023.86-.23 1.235-.606a8.254 8.254 0 0 0-1.702.452 5.942 5.942 0 0 0-1.558-.452h-2.155l-1.68-.315-1.242.315c-.015-.145-.117-.253-.315-.315h-1.995zm-7.418 2.631h6.943l.475.161h-6.973l-.445-.161zm12.496 0h5.57c-.822.122-1.236.637-1.236 1.55v4.004h-.944V96.84h-3.076l-.314-.161zm-17.282 1.082c.03.208.122.37.291.468a.636.636 0 0 0-.291-.468zm0 2.47v5.102c.03.137.122.237.291.315v-5.103c-.015-.137-.115-.237-.291-.314zm20.834 4.02c.298.03.56.184.782.453a.96.96 0 0 1-.782-.454zm-.162 2.477h.944v5.393h-.944v-5.393zm-20.672.921c.03.191.122.345.291.445a.624.624 0 0 0-.291-.445zm0 2.47v2.785c0 .736.091 1.511.291 2.316v-4.495c0-.207-.1-.414-.291-.606zm9.259-.154h10.647l.323.154H191.38l-.313-.154zm11.575 4.174c.298.03.56.184.782.452a.94.94 0 0 1-.782-.452zm-16.048.614h7.104c.115.015.222.115.314.315h-7.127c-.122-.016-.215-.124-.29-.315zm9.728 0c.183.037.328.145.451.315a.836.836 0 0 1-.451-.315zm-8.807 5.255v1.687h.607l.16-.161.153-1.075-.153-.451h-.767zm1.235 0l.162.451v-.451h-.162zm1.235 0c0 .536.153 1.103.453 1.687V120.3c-.078-.146-.23-.246-.453-.291zm17.152.451l.76.154a2.588 2.588 0 0 1-.76.628v-.782zm-23.328 1.704l2.31.161h2.316l-2.316-.161h-2.31zm5.393 0l2.332.161h3.238l-2.317-.161h-3.253zm-11.422.315l.162.766-.315-.161.153-.605zm6.03.766l2.623.154h8.339l-2.632-.154h-8.33zm8.017 2.317l2.63.153h8.338l-2.63-.153h-8.338zm-13.885.92c-.123-.015-.223-.115-.315-.29l.315.29zm10.97.783l.443.161c.362-.077.775-.13 1.235-.161l12.205.161 1.864-.161.453.161 1.396-.161 2.939.161-.63.444-1.994.162-1.711-.162-2.002.162-10.202-.162-1.841.162-1.865-.162-2.002.162-9.106-.162.608-.444 10.21-.161M217.37 86.839h2.11c.161.015.269.122.315.315l-1.527.13a2.752 2.752 0 0 1-.898-.445zm3.484 0h1.817l-.153.606c-.56-.061-1.113-.261-1.664-.606zm14.696 0h4.243v.606h-2.424a7.796 7.796 0 0 1-1.819-.606zm6.536 0c.215.145.362.352.453.606a1.29 1.29 0 0 1-.453-.606zm2.724 0h1.365c.184.076.284.222.3.445l-1.665.161v-.606zm-4.25 1.212h2.271v.92c.568-.598 1.334-.905 2.293-.92l1.665 1.527-.161 14.09.16.477v3.636l-.16.605.16 3.937-.16 1.21c.107.722.16 1.536.16 2.433l-.16.444.16 2.9-.16 1.511.16.445h-3.957a4.388 4.388 0 0 1-1.665-1.058 4.63 4.63 0 0 0 .92-1.052l-.758-.313-1.535-.14v2.563h-.737v-2.876h-.16c0 .345-.1.698-.315 1.058l-.897-.453 1.059-.897-1.98-1.082 2.132-.606c-.69-.03-1.396-.122-2.132-.291h.767l-1.98-.606c.491-.33.799-.783.921-1.373a13.948 13.948 0 0 0-2.746-.291 2.857 2.857 0 0 1-1.212.744l-.737-2.27.737-.76c-.69-.14-1.495-.384-2.424-.744l1.212-1.213c-.736-.346-1.587-.552-2.562-.606l.745-.161a2.843 2.843 0 0 0-.454-.92 5.787 5.787 0 0 0-.897.92l-.607-.453-.475-.758c-.33-.254-.775-.462-1.342-.607a4.34 4.34 0 0 1-.905.898l-.468-.898.468-2.271-.154-.605h-1.526c-.215.03-.361.123-.453.291v15.618c-.03.552-.283 1.012-.767 1.374l.767.152v1.819l-.29.452.29.162-.153 1.817h2.286l.137.897-2.56-.137.137.137-1.35.162-1.373-.299-3.797.614-.768-.614-1.365.137.154-.897h.766a1.361 1.361 0 0 0-.766-.606l1.372-.314.154-1.665-.154-.898c.345-.513.7-.874 1.06-1.08h-1.06l.154-.446-.154-1.373.154-1.35-.154-1.527.154-.605-.154-1.665v-.452l.154-.607-.154-1.68.154-.452-.154-2.11.154-.475-.154-2.876.154-1.98-.154-.898.154-1.526-.154-1.213.154-1.35-.154-1.526.154-.614-.154-1.657v-.453l.154-2.585a8.86 8.86 0 0 1 .606-1.817l.905-1.059h-1.058c.376-.115.682-.276.92-.467l.745.605.313 4.856v-4.994c.6 0 1.205.154 1.82.453l.16 4.856v-4.096l.13-1.366 1.373.153.154 3.038c0 .676.053 1.281.16 1.819v-5.01c.36.07.66.276.898.606v2.585l.162.292h-.162v1.979l.162.445v.453c-.077.344-.13.743-.162 1.21.36-.19.768-.29 1.212-.29.077.344.13.752.16 1.212-.42.03-.827.13-1.21.291.367.553.927.913 1.656 1.082.437.176.944.276 1.535.292.399.46.905.92 1.502 1.373l.745-.768.607 1.059-1.665.154.606.606.154-.606 1.51.16c.4.13.806.338 1.212.607l-1.059.444c-.552.2-1.05.506-1.503.929.737.237 1.542.437 2.425.606l.452-.315.898.315h-1.06l2.432 2.11c-.267.152-.421.406-.452.766h1.372l-.605-.766c.79.03 1.603.229 2.424.605l-1.819.921a1.677 1.677 0 0 0-.605.606l1.35.453 1.074.896c.015-.267.115-.514.291-.744l2.433-.152a8.731 8.731 0 0 0-1.98.452l1.687 1.526c.1.223.308.422.606.607v-.606l-.16-.607.16-1.687c-.015-.506-.068-.913-.16-1.213l.16-.291V94.432h-4.717l-.453-.152.314-.929.606.476.14-.92 1.817.314a.836.836 0 0 0-.453-.476h-1.365l-.291-.605-.315.475-.614-.606-.291.445-1.051.161-.162-1.526a8.756 8.756 0 0 1 1.665-.299l.768-.921.152.921.14-1.528a7.906 7.906 0 0 1 1.212-.29l.467.452c.514-.215 1.12-.36 1.825-.453h2.11v-.92zm-20.312.92a8.121 8.121 0 0 0-.162 1.213c.093.137.245.237.475.291l.132-1.366-.445-.138zm14.697 3.038c.084.131.245.23.468.292-.093-.155-.245-.246-.468-.292zm2.739 0l1.059.292c.13-.03.237-.131.313-.292h-1.372zm-5.01 1.051c.284.23.591.529.921.905-.046.399-.2.76-.476 1.074h-.898c.078-.66.223-1.319.453-1.979zm5.01.606l1.059.162.313-.162h-1.372zm-14.851 0h4.38l.445.162h-4.38l-.445-.162zm16.96.767v12.136l.16.137-.16.315v2.424l.16.453c-.075.345-.13.743-.16 1.212.2-.207.452-.361.767-.452l1.059.452c-.423.284-.921.484-1.511.606a6.443 6.443 0 0 0-.315 1.212l1.826.315.467-.315V95.936l-.153-.605-.605.16v5.148c-.454-.03-.86-.238-1.22-.606V96.25l.452-1.818h-.767zm2.746.606v2.271l.154 1.817v-2.262l-.154-1.826zm-19.706 1.665h.29l-.137-.315-.153.315zm6.197 1.817h2.133l2.117.162h-2.117l-2.133-.162zm13.509 2.585l.154.454v-.454h-.154zm-24.723.745l.16 2.133v-2.133h-.16zm2.585.314v-.314h-.153l.153.314zm1.212-.314l.16 2.133v-2.133h-.16zm1.058 0l1.373.153h4.38l-1.373-.153h-4.38zm-2.876.153l.161 1.98v-1.98h-.16zm20.474.614h1.059a1.588 1.588 0 0 1-.768.445.668.668 0 0 1-.291-.446zm-3.353.76h1.827l-1.374.16-.453-.16zm5.623.16v4.848l.154.453v-5.3h-.154zm-21.978.446l-.475 3.191.475.453c-.23.72-.382 1.472-.475 2.27.345-.883.545-1.84.607-2.877l-.132-1.059.132-.467v-1.511h-.132zm2.272.452l.606.605c-.276-.076-.476-.275-.606-.605zm17.436.605h1.059v4.089l-.162 1.213h-1.058v-4.09l.16-1.212zm-20.474.922l.161.452v-.453h-.16zm1.818 0l.16.452v-.453h-.16zm3.037 0c.046.092.139.183.291.29-.015-.13-.113-.23-.29-.29zm5.148.743l1.978.154h2.11l-1.978-.154h-2.11zm5.752.76c.4.03.806.184 1.213.453-.422-.031-.82-.185-1.213-.453zm-17.734.92v4.857l.16.452v-5.309h-.16zm1.98 0v4.857l.16.452v-5.309h-.16zm1.817 0v4.857l.16.452v-5.309h-.16zm20.926 2.433l.154.444v-.444h-.154zm-4.855.744l1.059.153.313-.153h-1.372zm3.329.76c.115.015.222.122.315.313l-.315-.313zm-20.452 1.372l-.475 3.03c.077.215.23.36.475.453-.23.736-.382 1.487-.475 2.27.33-.813.53-1.718.607-2.723l-.132-1.051.132-.475v-1.504h-.132zm13.932 1.059c-.123-.015-.215-.115-.293-.299l.293.299zm-14.698.92l.161.445v-.445h-.16zm1.818 0l.16.445v-.445h-.16zm-3.797 2.424v4.856l.16.445v-5.301h-.16zm1.98 0v4.856l.16.445v-5.301h-.16zm1.817 0v4.856l.16.445v-5.301h-.16zm18.34 1.35l.607.606c-.252-.061-.452-.26-.606-.606zm-.897 1.98h.737v1.97c.107.607.415 1.006.928 1.22.66-.06 1.113-.414 1.365-1.058v-1.98l.453-.152h4.25v.92c-.138.613-.545 1.058-1.22 1.35l.161 1.68c-.315.39-.621.843-.92 1.35l-1.212-.292-1.22.292-1.818-.138-1.504.299c.032-.245.177-.445.445-.614a2.16 2.16 0 0 0 1.06-.291h-.898c-.392-.538-.592-1.196-.607-1.971v-2.585zm1.213.605h1.059a1.534 1.534 0 0 1-.768.446c-.146-.07-.245-.223-.291-.446zm2.27.92l.154 1.665v-1.664h-.154zm-23.059.607l-.606.453c.422-.015.821-.17 1.212-.453h-.606zm-.452.898c.437.298.943.506 1.533.606l-1.08.16c.505.346 1.12.545 1.818.606l-.606-1.212-1.665-.16zm3.805.606h1.211l-.92.16-.291-.16zm-8.653.92l2.27.291h8.354l-5.324-.291h-5.3zm28.651 0c.092.139.245.237.468.291-.085-.146-.246-.245-.468-.291zm-26.833 2.409h1.372a3.941 3.941 0 0 1-1.059.467l-.313-.467" fill="#fff"/></svg>