<svg width="581" height="176" viewBox="0 0 581 176" fill="none" xmlns="http://www.w3.org/2000/svg">
<path d="M251.2 8.7V45.7H242.9V1.10001H257L270.7 37.6L284.5 1.10001H298.2V45.7H289.2V8.5L275.1 45.7H265.3L251.2 8.7ZM322.5 8.5V45.7H331.6V8.5H349.9V1.10001H304.3V8.5H322.5ZM352.6 32.7C352.9 35.2 353.6 37.3 354.6 39C355.6 40.7 357.1 42.1 358.9 43.3C360.8 44.4 363.1 45.2 365.9 45.7C368.7 46.2 372 46.5 375.9 46.5C383.5 46.5 389 45.4 392.5 43.3C396 41.1 397.8 37.6 397.8 32.7C397.8 30.2 397.3 28.2 396.2 26.7C395.2 25.2 393.9 23.9 392.2 23.1C390.6 22.2 388.7 21.5 386.5 21.1C384.4 20.7 382.2 20.4 380 20.2C377.8 20 375.6 19.8 373.5 19.6C371.4 19.4 369.5 19.1 367.8 18.8C366.2 18.4 364.8 17.8 363.8 17C362.8 16.2 362.3 15.1 362.3 13.6C362.3 11.1 363.4 9.50001 365.5 8.60001C367.6 7.70001 370.8 7.2 375.1 7.2C377 7.2 378.6 7.3 380.1 7.5C381.6 7.7 382.9 8 384 8.5C385.1 9 385.9 9.59999 386.6 10.4C387.3 11.2 387.7 12.3 387.9 13.5H397.2C396.7 8.8 394.7 5.39999 391 3.39999C387.3 1.39999 382.1 0.399994 375.2 0.399994C368.3 0.399994 362.9 1.50001 359.1 3.60001C355.3 5.70001 353.5 9.1 353.5 13.8C353.5 16.3 354 18.3 355 19.9C356 21.4 357.4 22.6 359 23.5C360.7 24.4 362.6 25.1 364.7 25.5C366.9 25.9 369 26.2 371.2 26.4C373.4 26.6 375.6 26.7 377.7 26.9C379.9 27.1 381.8 27.4 383.4 27.8C385.1 28.2 386.4 28.9 387.4 29.7C388.4 30.5 389 31.7 389 33.3C389 35.6 388 37.3 385.9 38.3C383.8 39.3 380.5 39.9 376 39.9C373.8 39.9 371.9 39.8 370.2 39.6C368.6 39.4 367.2 39 366.1 38.5C365 38 364.1 37.3 363.4 36.4C362.7 35.5 362.2 34.3 361.9 32.9H352.6V32.7ZM240.4 97.2C240.7 99.7 241.4 101.8 242.4 103.5C243.4 105.2 244.9 106.6 246.7 107.8C248.6 108.9 250.9 109.7 253.7 110.2C256.5 110.7 259.8 111 263.7 111C271.3 111 276.8 109.9 280.3 107.8C283.8 105.6 285.6 102.1 285.6 97.2C285.6 94.7 285.1 92.7 284 91.2C283 89.7 281.7 88.4 280 87.6C278.4 86.7 276.5 86 274.3 85.6C272.2 85.2 270 84.9 267.8 84.7C265.6 84.5 263.4 84.3 261.3 84.1C259.2 83.9 257.3 83.6 255.6 83.3C254 82.9 252.6 82.3 251.6 81.5C250.6 80.7 250.1 79.6 250.1 78.1C250.1 75.6 251.2 74 253.3 73.1C255.4 72.2 258.6 71.7 262.9 71.7C264.8 71.7 266.4 71.8 267.9 72C269.4 72.2 270.7 72.5 271.8 73C272.9 73.5 273.7 74.1 274.4 74.9C275.1 75.7 275.5 76.7 275.7 78H285C284.5 73.3 282.5 69.9 278.8 67.9C275.1 65.9 269.9 64.9 263 64.9C256.1 64.9 250.7 66 246.9 68.1C243.1 70.2 241.3 73.6 241.3 78.3C241.3 80.8 241.8 82.8 242.8 84.4C243.8 85.9 245.2 87.1 246.8 88C248.5 88.9 250.4 89.6 252.5 90C254.7 90.4 256.8 90.7 259 90.9C261.2 91.1 263.4 91.2 265.5 91.4C267.7 91.6 269.6 91.9 271.2 92.3C272.9 92.7 274.2 93.4 275.2 94.2C276.2 95 276.8 96.2 276.8 97.8C276.8 100.1 275.8 101.8 273.7 102.8C271.6 103.8 268.3 104.4 263.8 104.4C261.6 104.4 259.7 104.3 258 104.1C256.4 103.9 255 103.5 253.9 103C252.8 102.5 251.9 101.8 251.2 100.9C250.5 100 250 98.8 249.7 97.4H240.4V97.2ZM306.2 73V110.2H315.3V73H333.5V65.6H288V73H306.2ZM359.5 65.6H347L327.3 110.2H335.8L340.8 98.8H364.7L369.7 110.2H379.2L359.5 65.6ZM343.7 92.1L352.7 71.5L361.8 92.1H343.7ZM418.5 92.7C421.6 91.8 423.9 90.3 425.4 88.1C427 85.9 427.8 83 427.8 79.4C427.8 75 426.5 71.6 423.8 69.2C421.2 66.8 417.4 65.6 412.4 65.6H384.4V110.2H393.5V93.5H408.9L419.3 110.2H429.4L418.5 92.7ZM411.3 86.6H393.6V72.4H411.3C414 72.4 415.9 73 417.1 74.1C418.2 75.2 418.8 76.8 418.8 78.7V80.3C418.8 82.2 418.2 83.7 417.1 84.9C415.8 86.1 413.9 86.6 411.3 86.6ZM449.7 73V110.2H458.8V73H477V65.6H431.4V73H449.7ZM482.6 91.7C482.6 98.2 484.5 103 488.3 106C492.1 109 497.8 110.5 505.4 110.5C512.9 110.5 518.5 109 522.2 106C525.9 102.9 527.8 98.2 527.8 91.7V65.2H519.3V91.4C519.3 93.7 519 95.7 518.4 97.3C517.8 98.9 517 100.1 515.8 101C514.6 101.9 513.2 102.6 511.5 102.9C509.8 103.3 507.8 103.5 505.5 103.5C503.3 103.5 501.3 103.3 499.5 102.9C497.8 102.5 496.3 101.9 495.2 101C494 100.1 493.1 98.8 492.5 97.3C491.9 95.7 491.7 93.7 491.7 91.4V65.2H482.6V91.7ZM577 69.5C574.6 67 570.8 65.7 565.5 65.7H537.3V110.3H546.4V94.7H565.5C570.7 94.7 574.5 93.4 577 90.9C579.5 88.4 580.7 84.8 580.7 80.2C580.7 75.5 579.4 71.9 577 69.5ZM571.5 81.1C571.5 83 570.9 84.6 569.8 85.8C568.7 87 566.8 87.5 564.2 87.5H546.3V72.6H564.2C566.8 72.6 568.6 73.2 569.8 74.4C570.9 75.6 571.5 77.2 571.5 79.1V81.1ZM242.9 130.3V174.9H252V155.7H278.5V174.9H287.6V130.3H278.5V148.3H252V130.3H242.9ZM297 156.8C297 163.3 298.9 168.1 302.7 171.1C306.5 174.1 312.2 175.6 319.9 175.6C327.4 175.6 333 174.1 336.7 171.1C340.4 168 342.3 163.3 342.3 156.8V130.3H333.8V156.5C333.8 158.8 333.5 160.8 332.9 162.4C332.3 164 331.5 165.2 330.3 166.1C329.1 167 327.7 167.7 326 168C324.3 168.4 322.3 168.6 320 168.6C317.8 168.6 315.8 168.4 314 168C312.3 167.6 310.8 167 309.7 166.1C308.5 165.2 307.7 163.9 307 162.4C306.4 160.8 306.2 158.8 306.2 156.5V130.3H297V156.8ZM392.4 155.3C391 153.5 388.9 152.2 385.9 151.5C388.5 150.7 390.4 149.3 391.5 147.5C392.6 145.6 393.2 143.5 393.2 141.2C393.2 137.5 392 134.8 389.7 133.1C387.4 131.3 384.1 130.4 379.8 130.4H351.8V175H380.4C385.1 175 388.6 173.9 390.9 171.8C393.3 169.6 394.5 166.4 394.5 162.2C394.5 159.3 393.8 157.1 392.4 155.3ZM360.7 136.4H377.5C381.9 136.4 384 138.2 384 141.7V143.3C384 145.2 383.5 146.7 382.4 147.7C381.3 148.7 379.7 149.2 377.5 149.2H360.7V136.4ZM385.4 162.8C385.4 166.8 383 168.7 378.1 168.7H360.8V155H378.1C380.6 155 382.4 155.5 383.6 156.6C384.8 157.6 385.4 159 385.4 160.8V162.8ZM176.6 1.2H143.5V34.3H176.6V1.2ZM92.5 5.5H68V30H92.5V5.5ZM17.1 9.3H0.299988V26.1H17.1V9.3ZM176.6 71.4H143.5V104.5H176.6V71.4ZM92.5 75.7H68V100.2H92.5V75.7ZM17.1 79.5H0.299988V96.3H17.1V79.5ZM176.6 141.4H143.5V174.5H176.6V141.4ZM92.5 145.7H68V170.2H92.5V145.7ZM17.1 149.6H0.299988V166.4H17.1V149.6Z" fill="#FF0032"/>
</svg>
